<svg width="24" height="24" viewBox="0 0 24 24" fill="none" xmlns="http://www.w3.org/2000/svg">
<path d="M22.4154 21.5771C21.8504 22.1874 21.2514 22.6281 20.5508 22.9106L20.5282 22.9219C15.1263 25.1256 7.39654 18.1869 3.92716 13.4179C1.29406 9.7677 -0.672298 4.89702 2.60496 1.80057C3.75765 0.670484 5.04595 0.546174 5.87092 0.941705C6.16474 1.07732 6.42466 1.28073 6.62808 1.57455C10.4591 6.97638 10.7868 6.51304 8.11979 9.24786C7.09141 10.3892 12.7193 15.4407 14.0076 16.1188C14.7986 16.3787 14.663 16.3674 15.827 15.2147C16.9345 14.1072 17.7142 14.1072 18.9234 14.9322C22.1894 17.2489 25.2406 18.4581 22.4154 21.5771Z" fill="white"/>
</svg>
