<svg width="32" height="32" viewBox="0 0 32 32" fill="none" xmlns="http://www.w3.org/2000/svg">
<rect width="32" height="32" rx="16" fill="#F9F9F9"/>
<path d="M21.6284 21.2503C21.3174 21.5862 20.9877 21.8289 20.6019 21.9844L20.5895 21.9906C17.6157 23.2038 13.3604 19.3839 11.4505 16.7586C10.0009 14.7491 8.91843 12.0677 10.7226 10.3631C11.3572 9.74098 12.0664 9.67255 12.5205 9.89029C12.6823 9.96495 12.8254 10.0769 12.9374 10.2387C15.0464 13.2124 15.2268 12.9574 13.7586 14.4629C13.1924 15.0913 16.2906 17.8722 16.9998 18.2454C17.4353 18.3885 17.3607 18.3823 18.0015 17.7477C18.6111 17.138 19.0404 17.138 19.7061 17.5922C21.504 18.8676 23.1838 19.5332 21.6284 21.2503Z" fill="#6039BB"/>
</svg>
