<svg width="150" height="150" viewBox="0 0 150 150" fill="none" xmlns="http://www.w3.org/2000/svg">
<path fill-rule="evenodd" clip-rule="evenodd" d="M63.8198 36.6298C64.2467 36.9059 64.5734 37.3094 64.7524 37.7817C64.8146 37.9354 64.865 38.0936 64.9032 38.2548C65.043 38.8443 65.0312 39.459 64.869 40.0428C64.7845 40.4603 64.5694 40.841 64.2542 41.1311C63.9389 41.4213 63.5393 41.6061 63.1119 41.6597C63.3872 43.3583 63.6461 44.4848 63.7018 44.7542C63.9699 45.8929 63.9494 45.6093 63.9132 45.8861L63.7712 46L63.591 45.978L63.4744 45.8361C63.4744 45.7999 63.1109 44.7681 62.7733 43.2972C62.2946 41.2145 62.3462 41.3477 62.402 41.2101C62.4365 41.144 62.4913 41.0902 62.5586 41.0567C62.7056 41.0023 62.8869 41.0124 63.2237 40.9077C63.4612 40.8459 63.6696 40.7046 63.8133 40.5078C64.0401 40.1521 64.1792 39.7488 64.2196 39.3302C64.2599 38.9117 64.2003 38.4896 64.0455 38.098C63.9154 37.7093 63.6352 37.3871 63.2658 37.2017C62.8486 36.9725 63.2066 36.7556 62.9118 35.1856C61.8599 29.8435 55.8582 29.6979 53.4223 32.8972L53.2667 32.9918L53.0958 32.9597H53.0927L53 32.8137C53.0369 32.6045 53.0246 32.6447 53.052 32.6028V32.6011C56.0125 28.1023 63.7641 29.4356 63.8198 36.6298Z" fill="black"/>
<path fill-rule="evenodd" clip-rule="evenodd" d="M56.105 35.0005C56.3561 34.9896 56.5995 35.1512 56.7824 35.4502C56.8883 35.599 56.9645 35.8021 57 36.0306C57 36.0342 56.9722 36.2642 56.9722 36.2678C56.5183 36.346 56.7791 36.3229 56.5171 36.2452C56.471 36.2289 56.4243 36.2175 56.3774 36.2112L56.3706 36.2081C56.2123 36.1472 56.0481 36.1493 55.8904 36.2143L55.8821 36.221C55.7911 36.2766 55.7088 36.3686 55.642 36.4896C55.605 36.5776 55.5695 36.5925 55.3989 36.7793C55.367 36.8235 55.4105 36.7793 55.1192 37C54.9907 36.4855 55.0055 36.5554 55.0022 36.5004C54.9909 36.2616 55.0231 36.0227 55.0943 35.8176C55.2423 35.4951 55.4405 35.2535 55.6654 35.1214C55.8071 35.0389 55.9556 34.9981 56.105 35.0005Z" fill="black"/>
<path d="M56.7014 38.1265C56.7206 37.6865 56.4213 37.3161 56.033 37.2991C55.6446 37.2822 55.3142 37.6252 55.2951 38.0652C55.2759 38.5051 55.5752 38.8755 55.9635 38.8925C56.3519 38.9094 56.6822 38.5664 56.7014 38.1265Z" fill="black"/>
<path fill-rule="evenodd" clip-rule="evenodd" d="M55.8231 44L55.6809 43.9663C55.6474 43.9462 55.5414 43.8997 55.5042 43.884C55.4822 43.8744 55.2738 43.7842 55.25 43.7746C55.1887 43.7485 55.1288 43.7195 55.0707 43.6879C54.9581 43.6295 54.8364 43.5869 54.7099 43.5616C54.6808 43.557 54.6513 43.5548 54.6218 43.5548H54.6182H54.6088H54.6052H54.6029H54.5993H54.5926H54.5901H54.5878H54.5855H54.5832H54.5806H54.578H54.5757H54.5744H54.5732H54.5719H54.5706V43.556L54.5668 43.559L54.5655 43.5611V43.5632H54.5642C54.5609 43.5684 54.5579 43.5737 54.5552 43.5791L54.5527 43.581L54.5476 43.5873L54.5453 43.5894L54.5427 43.5936L54.5401 43.5957L54.5327 43.6021L54.5302 43.6063L54.5189 43.6187C54.5004 43.6381 54.484 43.659 54.47 43.6813C54.4458 43.7129 54.4244 43.7463 54.4062 43.7812V43.7842L54.2252 43.9429C54.0306 43.758 54.0523 43.8073 54.0067 43.6252C54.0012 43.58 53.9991 43.5346 54.0003 43.4891C54.0038 43.4415 54.0155 43.3947 54.0352 43.3505C54.0889 43.2446 54.1746 43.155 54.2823 43.0921C54.4118 43.0217 54.5623 42.9904 54.7125 43.0026C55.0271 43.0374 55.3261 43.1469 55.5798 43.3203C55.7244 43.4311 55.8509 43.5602 55.9554 43.7038L56 43.8305L55.9631 43.9369L55.8231 44Z" fill="black"/>
<path fill-rule="evenodd" clip-rule="evenodd" d="M52.8485 45.4271C52.9558 45.5093 53.2453 45.6911 53.2847 45.713C53.8586 46.111 54.5523 46.3442 55.2755 46.3821C55.6368 46.4003 55.9992 46.3709 56.3512 46.2951C56.6282 46.2387 56.9048 46.0985 57.1052 46.454C57.419 47.0895 57.6821 47.7444 57.8925 48.4137C58.021 48.7683 57.9998 48.6364 57.997 48.8737L57.8775 48.9984H57.8739L57.691 49C57.5121 48.8601 57.5812 48.9742 57.1768 48.2761C57.1578 48.2477 56.7144 47.4329 56.5044 47.0097C56.2006 47.0747 55.89 47.1098 55.5779 47.1144C54.6893 47.1304 53.8161 46.904 53.0729 46.4649C52.7604 46.2841 52.4943 46.0453 52.2924 45.7645V45.7616C52.1917 45.6243 52.1016 45.4808 52.0229 45.3323L52 45.156L52.0887 45.0245H52.0923L52.2616 45C52.5658 45.1492 52.2562 44.9729 52.8485 45.4271Z" fill="black"/>
<path fill-rule="evenodd" clip-rule="evenodd" d="M54 47C53.3881 46.7538 52.5768 46.4886 52.4071 45.79C52.2792 45.2869 52.1745 44.7768 52.0932 44.2617C51.9953 43.5895 51.9744 42.906 52.0311 42.2279C52.0404 42.1535 52.0128 41.9643 52.0701 42.0059C52.6647 42.4529 52.3422 43.5766 53.921 46.943" fill="black"/>
<path fill-rule="evenodd" clip-rule="evenodd" d="M53.5071 45.9855C53.8529 46.1453 54.2332 46.2185 54.6145 46.1986C54.4127 45.7122 53.8515 44.3409 54.3784 44.4177C54.5469 44.4443 54.6733 44.6152 54.7613 44.7436C54.9918 45.0802 55.0766 45.5877 55.4013 45.8565C55.6907 46.0987 56.4288 45.7638 56.7178 45.6489C56.9084 45.5728 57.3834 45.4759 57.4493 45.2359C57.5194 44.9726 57.2924 44.6263 57.1943 44.3959C56.9809 43.8956 56.7546 43.3926 56.5146 42.9017C56.3965 42.5953 56.2179 42.3152 55.9892 42.0776C55.4864 41.6372 55.1305 41.8981 54.8023 41.6822C54.597 41.5438 54.4992 41.3072 54.7917 41.1906C55.0558 41.1181 55.3353 41.1213 55.5975 41.1999C55.8569 41.2394 56.1072 41.3236 56.337 41.4487C57.0117 41.8576 57.353 42.6595 58.006 43.6752C58.4933 44.4512 58.4758 45.1065 59.6423 43.832C61.3505 41.9794 60.6859 41.2345 61.2268 39.4162C61.2619 39.303 61.3453 38.9623 61.5257 39.0034C61.8084 39.0726 61.8935 39.4895 61.9233 39.7237C62.0386 40.4788 62.0238 41.2478 61.8795 41.998C61.7489 42.6865 61.4643 43.3375 61.0464 43.9036C60.556 44.5073 59.354 45.7147 58.062 46.2422C57.7779 46.3578 56.7819 46.7978 56.5486 46.8563C54.762 47.3102 53.2524 46.5896 53.0163 46.07C52.9722 45.9662 53.0188 45.8658 53.1428 45.8728C53.2743 45.8928 53.4021 45.9322 53.5218 45.9897" fill="black"/>
<path fill-rule="evenodd" clip-rule="evenodd" d="M43.3255 35.0095C43.4805 35.1744 43.4322 35.04 43.7081 35.876C45.9105 43.2358 42.1955 48.4744 42.8938 59.4694C43.1534 62.8578 43.7746 65.7304 45.566 68.5911C46.9403 70.7031 48.8458 72.4277 51.0966 73.5971C51.2833 73.6051 56.2584 76.9261 63.6789 74.4391L63.8702 74.4489L64 74.5854C64 74.5903 63.9904 74.7692 63.99 74.7741L63.8517 74.9039C62.377 75.4507 60.834 75.7981 59.2648 75.9368C56.167 76.2164 53.056 75.5643 50.3411 74.0661C47.6261 72.5678 45.4345 70.2938 44.0544 67.5431C41.6067 62.6802 41.7329 55.6082 42.4618 50.231C42.9116 46.4445 44.2799 40.9841 43.4158 36.9401C43.3091 36.3881 43.1673 35.8432 42.9913 35.3087L43.0062 35.1235L43.1442 35L43.3255 35.0095Z" fill="#010101"/>
<path fill-rule="evenodd" clip-rule="evenodd" d="M46.2237 34.0152L46.3339 34.1551C46.6643 34.8358 46.7154 35.3538 46.8608 36.4278C46.9487 37.1086 46.9953 37.8001 47 38.4938C46.9893 38.9102 46.9578 39.3249 46.9057 39.7341L46.8373 39.9252L46.7172 40L46.602 39.91L46.5436 39.71H46.5424C46.5276 39.4305 46.4406 38.5016 46.4031 37.8564C46.3058 36.1775 46.0932 35.5491 46.0341 34.8131C46.0328 34.7976 46.0021 34.3602 46 34.3454C46 34.3423 46.0238 34.1321 46.024 34.1294L46.1051 34H46.1077L46.2237 34.0152Z" fill="#010101"/>
<path fill-rule="evenodd" clip-rule="evenodd" d="M48.5202 34.0169C48.7227 34.0951 48.8837 34.2022 48.9863 34.3269C49.1669 34.4858 49.3143 34.6556 49.4256 34.8331C49.7043 35.4299 49.8804 36.0401 49.9516 36.6555C50.0565 37.219 49.9906 37.7883 49.7567 38.3396C49.7044 38.4968 49.5343 38.7667 49.5314 38.8028L49.3388 38.9537L49.0528 39L48.8049 38.907L48.7069 38.7294C48.7069 38.3181 48.6355 36.953 48.6213 36.7746C48.5549 36.1718 48.3883 35.5737 48.1237 34.988C48.0779 34.8411 47.9977 34.316 48.0001 34.2912L48.0595 34.1082L48.2462 34H48.2515L48.5202 34.0169Z" fill="#010101"/>
<path fill-rule="evenodd" clip-rule="evenodd" d="M51.3901 35.0428C51.5089 35.2259 51.5102 35.1267 51.6843 36.3173C51.8354 37.8323 51.8651 39.3584 51.7731 40.8789C51.709 42.1041 51.7559 43.3331 51.9131 44.5487C52.7049 49.4341 56.042 54.7869 57.9378 60.493C57.9954 60.6086 58.0137 60.742 57.9897 60.8704L57.8623 61L57.6875 60.9904C57.524 60.8088 57.6157 60.9766 57.333 60.2562C55.3362 55.4808 52.1494 49.8062 51.262 45.1629C50.6423 41.7579 51.3523 38.9941 51.0872 35.6751C51.0335 35.205 51.0309 35.3346 51.0832 35.1023L51.2262 35L51.3901 35.0428Z" fill="#010101"/>
<path fill-rule="evenodd" clip-rule="evenodd" d="M60.844 57.0057L61 57.1062C61 57.1086 60.9952 57.2725 60.9948 57.2753C60.4707 57.8583 59.3943 58.1433 58.1892 58.75C57.9624 58.8727 57.7087 58.9535 57.4439 58.9873C57.3597 59.0072 57.4407 59.013 57 58.9341C57.0909 58.5528 57.0651 58.6207 57.1191 58.5596C57.2768 58.3554 57.4918 58.189 57.7441 58.0761C57.7461 58.0363 59.2879 57.3836 59.5217 57.2873C59.7575 57.2088 59.9978 57.1408 60.2416 57.0836C60.4315 57.0139 60.6388 56.9872 60.844 57.0057Z" fill="#010101"/>
<path fill-rule="evenodd" clip-rule="evenodd" d="M28.8801 42.0063H28.8833L29.0022 42.1415C28.9918 42.4475 29.0401 42.1729 28.7048 43.0085C27.4061 46.1502 26.6389 49.9435 26.2031 53.3709C25.9572 55.5501 25.8397 57.4591 25.7993 58.8464C25.7068 60.5068 25.8675 62.1717 26.2758 63.7835C26.446 64.407 26.6505 65.0206 26.8883 65.6215C27.9186 68.0671 29.7874 70.0632 32.1574 71.2496C33.634 71.956 35.2513 72.3171 36.8875 72.3055C38.7428 72.2773 40.5758 71.8953 42.2885 71.1799C42.6147 71.0489 43.6146 70.5955 43.6553 70.5572L43.8418 70.5429C43.8445 70.545 43.9833 70.6607 43.9854 70.6631L44 70.8485C43.8386 71.0443 44.0056 70.945 42.846 71.5173C41.609 72.1017 40.3031 72.5265 38.9593 72.7816C38.0698 72.942 37.1666 73.0144 36.2629 72.9976C36.0504 72.9976 35.8403 72.9774 35.7015 72.9715C35.0612 72.9248 34.4261 72.8229 33.8032 72.6669C33.1774 72.5081 32.5668 72.2944 31.9783 72.0285C30.6527 71.4101 29.4596 70.5395 28.4655 69.465C27.5826 68.5496 26.8624 67.4896 26.336 66.331C24.7629 62.805 24.895 59.7929 25.1684 55.9432C25.5979 50.9193 26.2591 46.6618 28.5608 42.1209L28.7 42L28.8801 42.0063Z" fill="#010101"/>
<path fill-rule="evenodd" clip-rule="evenodd" d="M36.4109 44.0004L36.5481 44.085L36.6057 44.2605C36.6057 44.3132 36.5979 44.9189 36.6203 45.3693C36.6203 45.6183 36.6514 46.1685 36.6567 46.2801C36.6995 47.6435 36.8224 49.0023 37.0244 50.3474C37.3666 52.9196 38.4492 56.4602 39.3119 58.8491C40.0868 60.9958 39.9854 60.5123 40 60.8469C39.9978 60.8497 39.8964 60.9874 39.8942 60.9905C39.8921 60.9937 39.7309 61 39.729 61C39.5579 60.836 39.6357 60.9508 39.376 60.4133C39.1952 60.0211 38.6676 58.9137 38.2386 57.7659C37.2653 55.1748 36.5859 52.4552 36.2165 49.6718C35.7611 46.258 36.1636 44.5456 36.1761 44.2216L36.2582 44.0572L36.4066 44L36.4109 44.0004Z" fill="#010101"/>
<path fill-rule="evenodd" clip-rule="evenodd" d="M41.8688 57.0089L42 57.0786C42 57.0803 41.9881 57.1895 41.9881 57.1911L41.8561 57.3055C41.6108 57.4441 41.3394 57.5599 41.049 57.6499C41.0087 57.6488 40.757 57.7434 39.9261 57.9499C39.848 57.9755 39.7637 57.9912 39.6773 57.9963C39.6422 57.9989 39.5215 58.0005 39.4958 57.9998C39.2646 57.9901 39.3744 58.012 39 57.893C39.1755 57.6378 39.1095 57.7077 39.2807 57.5967C39.3839 57.5277 39.5097 57.4762 39.6478 57.4463C39.7201 57.4485 40.9602 57.0577 41.4024 57.028C41.554 56.9989 41.7131 56.9924 41.8688 57.0089Z" fill="#010101"/>
<path d="M100.069 35.3783C100.552 35.3443 100.914 34.8893 100.877 34.3619C100.84 33.8346 100.418 33.4347 99.9342 33.4687C99.4508 33.5027 99.089 33.9578 99.1261 34.4851C99.1632 35.0124 99.5851 35.4123 100.069 35.3783Z" fill="black"/>
<path fill-rule="evenodd" clip-rule="evenodd" d="M100.543 31.1307C100.64 31.1746 100.734 31.227 100.825 31.2874C100.862 31.3148 100.828 31.2807 100.982 31.4703L101 31.6572L100.882 31.7849L100.685 31.8201C100.613 31.811 100.54 31.808 100.467 31.8111C100.3 31.8185 100.134 31.8428 99.9704 31.884H99.9684C99.7937 31.9072 99.6232 31.961 99.4631 32.0434C99.2474 32.1546 99.0509 32.3086 98.8829 32.4982C98.8265 32.5732 98.7613 32.6391 98.6893 32.6941C98.5204 32.8649 98.309 32.9718 98.0842 33L98 32.6279C98.0242 32.4737 98.0651 32.3236 98.1218 32.1809C98.1736 32.0597 98.2471 31.952 98.3376 31.8648C98.5582 31.6183 98.8132 31.415 99.0924 31.2631C99.3424 31.1299 99.6092 31.0414 99.8831 31.001C100.109 30.9926 100.333 31.0368 100.543 31.1307Z" fill="#010101"/>
<path fill-rule="evenodd" clip-rule="evenodd" d="M99.8543 40L99.9686 40.1166L100 40.3143C99.9678 40.5949 99.8992 40.8686 99.7965 41.1268C99.7782 41.165 99.8407 41.0272 99.711 41.3184C99.3802 41.8967 98.926 42.3718 98.3899 42.7003C98.2116 42.8189 98.0203 42.9104 97.8207 42.9724C97.6585 43.0046 97.4928 43.0086 97.3295 42.9845C97.2111 42.9657 97.2858 43.0111 97 42.7542C97.2745 42.3616 97.0697 42.5823 97.6034 42.2305C97.892 42.1099 98.1635 41.9428 98.4097 41.7344C98.686 41.4906 98.9317 41.2054 99.14 40.8869C99.1865 40.8259 99.3284 40.625 99.4117 40.4826C99.4729 40.3841 99.5281 40.281 99.5769 40.174L99.6997 40.0301L99.8514 40.0032L99.8543 40Z" fill="#010101"/>
<path fill-rule="evenodd" clip-rule="evenodd" d="M75.5 48.8535C74.1529 47.7595 72.3889 47.1454 70.7441 46.7594C68.6602 46.269 64.4696 46.6174 64.4311 46.6557C62.8168 48.2294 61.3324 49.9092 59.3978 51.1038C58.6245 51.5818 56.8929 51.8765 57.3143 50.3781C56.6247 50.6569 56.0047 51.092 55.5 51.6512C56.3373 53.5646 57.0527 55.1093 57.8967 57.0133C58.7732 56.645 59.3704 56.5271 60.2472 56.1636C62.9008 58.0072 64.6947 61.4186 65.6663 64.5C66.0444 63.8403 66.4279 63.1651 66.8556 62.5379C66.3609 61.0972 65.747 58.2052 68.0144 58.0801C67.8972 56.287 68.4381 54.2654 70.5512 54.5066C70.4741 53.5895 70.4761 52.5531 70.9866 51.7514C71.6313 50.7389 73.0045 51.213 73.6438 51.9328C74.1888 50.9311 75.5 48.8535 75.5 48.8535Z" fill="#FFAB00"/>
<path fill-rule="evenodd" clip-rule="evenodd" d="M74.7059 50.9916C74.041 52.1136 74.1038 52.1857 73.8349 52.1738C73.6912 52.1388 73.6823 52.0892 73.613 52.0269C73.3609 51.7814 73.0563 51.5996 72.7235 51.4958C72.4942 51.4195 72.2498 51.4037 72.0129 51.4496L72.005 51.4524H71.9955C71.8595 51.4845 71.7329 51.549 71.6258 51.6405L71.6207 51.6465C71.2344 52.1091 71.0214 52.6975 71.02 53.3063C70.9739 54.3923 71.1285 54.4227 71.0043 54.6752C70.9685 54.7325 70.9171 54.7778 70.8564 54.8054C70.7957 54.833 70.7284 54.8417 70.663 54.8304C70.2773 54.7801 69.8857 54.8467 69.5366 55.0221C69.3189 55.1579 69.1296 55.3365 68.9797 55.5477C68.8298 55.7589 68.7222 55.9985 68.6631 56.2525C68.6068 56.4457 68.5652 56.6432 68.5389 56.8431C68.3843 58.0875 68.6638 58.185 68.3249 58.4364C67.988 58.5955 66.5647 58.3029 66.9231 60.8966C67.009 61.4382 67.1421 61.9709 67.3207 62.4882C67.4067 62.84 67.2651 62.7186 66.2217 64.5557C66.0718 64.8152 66.0288 64.9641 65.7657 64.9995C65.681 65.004 65.5973 64.9799 65.5275 64.9308C65.4576 64.8816 65.4055 64.8103 65.3793 64.7278C64.8804 63.1391 64.1964 61.6178 63.3419 60.1969C62.5264 58.8001 61.449 57.5825 60.1717 56.6144C59.8782 56.7088 60.5233 56.5123 59 57.021C58.3514 57.2308 58.0204 57.3805 57.9077 57.4154C57.8221 57.4346 57.7326 57.4232 57.6542 57.383C57.5758 57.3429 57.5131 57.2765 57.4766 57.1948C55.8018 53.428 55.0014 51.843 55 51.5682C55.0073 51.4774 55.0462 51.3923 55.1096 51.3283C55.5089 50.8832 55.9819 50.5137 56.5066 50.237C56.7271 50.1135 56.9572 50.009 57.1947 49.9248C57.2784 49.9162 57.3626 49.9358 57.4344 49.9806C57.5063 50.0254 57.562 50.0929 57.593 50.1731C57.6463 50.3587 57.608 50.3685 57.5674 50.5856C57.5505 50.655 57.5464 50.727 57.5555 50.7979V50.8045V50.8108C57.5567 50.8185 57.5584 50.8261 57.5606 50.8335V50.8402C57.5644 50.8545 57.569 50.8686 57.5743 50.8825V50.8856L57.5773 50.8891L57.5801 50.8958V50.8989C57.5833 50.9032 57.5862 50.9076 57.5889 50.9122V50.9154V50.9189V50.9224L57.5981 50.9325H57.6012V50.9356H57.6043V50.9388L57.6074 50.9405H57.6104L57.6149 50.9454H57.6179L57.621 50.9489L57.6302 50.9542L57.6333 50.9573C57.6405 50.9615 57.6367 50.9573 57.6439 50.9629L57.647 50.9661L57.664 50.9734L57.6685 50.9769L57.6869 50.9839L57.6917 50.9874C57.706 50.9933 57.7466 51.0056 57.7599 51.0101H57.7678C57.7821 51.0143 57.7736 51.0101 57.7879 51.0157H57.7958L57.8098 51.0196H57.8176L57.8255 51.0217C58.7388 51.0622 59.2679 50.6493 60.0099 50.1154C62.0193 48.5979 63.9208 46.444 64.2812 46.1884C64.6294 46.0342 68.7294 45.8227 70.7619 46.2636C72.4863 46.6545 74.539 47.4118 75.8958 48.5692L75.8992 48.566C76.1422 48.7975 76.019 48.7762 74.7059 50.9916ZM73.811 51.4399C73.9475 51.1804 75.3752 48.9073 75.4394 48.8321C74.1915 47.8964 72.3593 47.2999 70.8442 46.9821C69.7738 46.7122 67.4282 46.7664 66.3288 46.8094C66.0196 46.8265 64.9663 46.8835 64.6605 46.922C62.4193 49.1332 61.8715 49.751 60.2031 50.9643C59.6946 51.3739 59.1008 51.6578 58.4678 51.7941C58.019 51.8755 57.4333 51.8601 57.1025 51.5367C56.9425 51.3887 56.8357 51.1898 56.7995 50.972C56.4493 51.1643 56.1275 51.4065 55.8437 51.6912C56.368 52.8934 57.8145 56.0479 58.0234 56.5266C58.3682 56.3868 59.5038 56.0371 59.84 55.8972C60.3069 55.7224 60.2318 55.6819 60.8257 56.1266C62.0298 57.0789 63.0581 58.2439 63.8621 59.5669C64.6611 60.8603 65.3231 62.2373 65.837 63.6746C65.8599 63.6368 66.2957 62.8998 66.5275 62.5617C66.1281 61.2872 65.7633 59.4823 66.6039 58.4357C66.8987 58.0817 67.3077 57.8478 67.7566 57.7766C67.695 56.7902 67.9595 55.8112 68.5075 54.9976C68.6501 54.8155 68.8191 54.6568 69.0086 54.5269C69.4119 54.258 69.8856 54.1213 70.3667 54.135C70.3141 53.0402 70.5206 51.5524 71.4429 51.0189C71.9941 50.6968 72.9031 50.7129 73.811 51.4399Z" fill="#FFAB00"/>
<path fill-rule="evenodd" clip-rule="evenodd" d="M68.8858 82.8174C67.5642 81.8551 66.5192 80.5215 65.8669 78.9649C65.2147 77.4083 64.9807 75.6897 65.191 74C62.3119 75.7348 59.2863 76.627 56 75.8012C56.5084 78.2002 57.0281 80.5999 57.523 83C58.8046 82.952 65.1233 82.8719 69 82.8943" fill="#FFAB00"/>
<path fill-rule="evenodd" clip-rule="evenodd" d="M64.898 74.0021C64.9872 74.0172 65.0682 74.0608 65.1277 74.1257C65.1872 74.1906 65.2215 74.273 65.225 74.359C65.2197 74.4288 65.1933 74.6298 65.1901 74.6655C65.0855 75.6048 65.1598 76.5544 65.4095 77.4686C65.7033 78.63 66.2501 79.7198 67.0147 80.6677H67.0178C67.5362 81.2847 68.1326 81.8386 68.7937 82.3168L68.9228 82.3678C69.1561 82.8912 69.1777 82.7455 64.1445 82.8408C58.9361 82.9852 62.5362 82.8531 56.9695 82.9997C56.8777 83.0031 56.7876 82.9756 56.7149 82.9221C56.6423 82.8686 56.5918 82.7925 56.5722 82.7071C54.9109 75.6053 54.9729 76.1237 55.0144 75.9168C55.04 75.8358 55.0937 75.7653 55.1667 75.7169C55.2396 75.6684 55.3277 75.6447 55.4165 75.6497C56.6745 75.9336 57.9753 76.0035 59.2589 75.8562C60.6759 75.6774 62.0532 75.2823 63.3377 74.686C64.6905 74.0832 64.5979 73.9829 64.898 74.0021ZM56.6384 76.611C56.6004 76.6067 55.9458 76.5275 55.9071 76.5077C56.1766 77.6332 57.0092 81.1202 57.2676 82.2453C57.5698 82.1622 66.2664 82.2556 67.9134 82.2807C67.8723 82.2589 67.5673 82.0282 67.3817 81.8759C67.0743 81.6214 66.7867 81.3459 66.5213 81.0516C65.0092 79.3881 64.237 77.2307 64.368 75.0356C61.9533 76.228 59.3505 76.9311 56.6384 76.611Z" fill="#FFAB00"/>
<path fill-rule="evenodd" clip-rule="evenodd" d="M94.3421 46.0707C94.4912 46.2113 94.6507 46.3323 94.8182 46.4321L95.0066 46.557C95.3197 46.7963 95.6635 46.9611 96.0215 47.0436C96.3629 47.1257 96.7112 47.149 97.0573 47.1128C97.4667 47.0693 97.8719 46.9752 98.2675 46.8318C98.4088 46.7783 98.5454 46.7061 98.6752 46.6161L98.8373 46.5774L98.9687 46.6721H98.9702L99 46.8654L98.9221 47.0536C98.7862 47.2074 98.6393 47.344 98.4833 47.4614C98.0992 47.7396 97.6747 47.9115 97.2367 47.9662C96.6055 48.0541 95.9671 47.9702 95.3624 47.72C95.1169 47.6143 94.8813 47.4738 94.6597 47.301L94.5516 47.2005C94.3491 46.9815 94.1761 46.7202 94.04 46.4275L94 46.2207L94.0525 46.051L94.1863 46L94.3421 46.0707Z" fill="black"/>
<path fill-rule="evenodd" clip-rule="evenodd" d="M94.7577 47.0564C94.8681 47.2376 94.8251 47.099 94.9143 47.5778C95.0025 48.1156 95.0227 48.6601 94.9745 49.2017C94.9823 49.2772 94.9638 49.3529 94.9215 49.4194C94.7587 49.6207 94.6109 49.568 94.2053 49.5837C93.0372 49.6358 91.8739 49.7497 90.722 49.9248C90.1712 50.0109 90.3965 50.0131 90.1133 49.9809L90 49.8757C90 49.8718 90.0173 49.7355 90.0179 49.7304L90.1481 49.6255C91.0867 49.2666 92.0928 49.0565 93.118 49.0054C94.3394 48.9212 94.2414 48.9731 94.2434 48.9313C94.2434 48.8752 94.2476 48.636 94.2483 48.4826C94.2381 48.1803 94.2614 47.8779 94.3179 47.5795C94.3202 47.5657 94.3863 47.2059 94.3869 47.1944L94.469 47.0578L94.6099 47L94.7577 47.0564Z" fill="black"/>
<path fill-rule="evenodd" clip-rule="evenodd" d="M106.337 32.3649C106.481 32.4444 106.622 32.5322 106.757 32.6279C108.487 33.9475 108.379 36.1498 106.632 37.4214C106.118 37.7954 105.54 38.0647 104.93 38.2153C104.944 39.6574 104.733 41.0923 104.305 42.4635C103.967 43.5714 103.446 44.6089 102.765 45.5285C102.768 45.5733 102.79 47.4105 102.889 49.0145C104.158 49.3837 105.402 49.8385 106.614 50.3761C107.012 50.572 106.911 50.5002 107.07 50.6836L107.065 50.8717L106.931 51C106.895 51 106.71 50.9964 106.747 50.9964C105.393 50.4587 104.004 50.0212 102.592 49.6871C102.524 49.6846 102.458 49.6665 102.398 49.6342C102.213 49.5101 102.214 49.3775 102.193 49.1432C102.114 48.3629 102.034 47.2541 102 45.7408C102.006 45.1133 101.996 45.2854 102.299 44.852L102.428 44.6647C102.76 44.1615 103.042 43.6246 103.271 43.0621C103.923 41.4286 104.225 39.6664 104.157 37.8985C104.154 37.8105 104.179 37.7239 104.228 37.6521C104.277 37.5803 104.347 37.5274 104.427 37.5014C104.707 37.4576 104.983 37.3851 105.249 37.2849C106.354 36.8089 107.287 36.0457 107.224 34.805C107.224 34.7936 107.22 34.7499 107.219 34.7474C107.183 34.388 107.061 34.0439 106.864 33.747C106.648 33.4161 106.366 33.1387 106.036 32.9344C105.618 32.66 105.136 32.5091 104.642 32.4978L104.474 32.4267L104.4 32.2614L104.464 32.0908C104.654 31.9948 104.6 32.0058 104.76 32.0012C105.306 31.9863 105.847 32.1112 106.337 32.3649Z" fill="black"/>
<path fill-rule="evenodd" clip-rule="evenodd" d="M91.1847 26.8357C92.1932 27.3808 93.1604 28.0014 94.2828 28.2764C96.7859 28.8888 99.6906 27.8592 101.56 26.0991C101.832 28.9755 102.386 32.2193 105.398 33C105.597 31.2137 105.391 29.0894 104.62 27.4531C103.739 25.588 101.833 24.2104 99.8964 23.7491C98.2449 23.3418 96.5151 23.4288 94.9098 23.9998C94.2502 24.2573 93.6656 24.7132 92.9806 24.9087C92.6959 24.99 92.2887 24.8557 92.3335 24.4768C92.3909 24.0606 92.5942 23.6806 92.9049 23.4085C93.8706 22.6628 94.9855 22.1489 96.1682 21.9044C97.9096 21.5725 100.638 21.9313 102.207 22.8355C103.78 23.8278 105.05 25.2582 105.87 26.9621C106.588 26.9979 107.013 27.1251 107.62 26.6058C108.347 25.9838 107.978 24.672 105.422 24.3497C105.9 24.1975 106.356 23.9797 106.778 23.7022C107.22 23.4762 107.591 23.1271 107.849 22.6944C108.307 21.7487 107.666 20.8372 106.694 20.7305C105.674 20.6184 104.544 21.3995 103.854 22.1175C104.357 21.3046 104.993 20.5611 105.276 19.6239C105.64 18.4235 105.139 17.612 103.981 18.2137C103.058 18.6925 102.469 19.7647 101.91 20.6156C102.252 19.9865 102.511 19.3135 102.681 18.614C102.894 17.5418 102.709 15.31 101.068 15.8275C99.6777 16.2666 98.9126 17.9157 98.4693 19.3371C98.5835 18.2545 99.0181 15.6864 98.521 14.6328C98.4585 14.4788 98.3606 14.3427 98.2358 14.2363C98.111 14.1299 97.963 14.0564 97.8046 14.022C97.6462 13.9877 97.482 13.9936 97.3263 14.0391C97.1705 14.0847 97.0278 14.1686 96.9105 14.2837C96.7402 14.4403 96.5912 14.6199 96.4675 14.8176C95.6166 16.1427 95.6086 17.8076 95.4954 19.3353C95.2524 18.2609 94.9285 17.0433 94.1203 16.2555C92.8837 15.0529 91.8561 16.6999 91.7756 17.9232C91.6975 19.1262 92.1491 20.2134 92.5178 21.3236C91.8534 20.3208 91.3687 18.84 90.346 18.1406C89.275 17.4079 88.4209 18.5037 88.4296 19.6221C88.44 20.9275 89.3937 22.2436 90.0783 23.2997C89.267 22.519 88.2179 21.4156 87.0052 21.4579C86.163 21.4872 85.2819 23.3917 86.9236 25.2389C88.0491 26.5077 89.5787 26.5281 91.0958 26.6674" fill="black"/>
<path fill-rule="evenodd" clip-rule="evenodd" d="M105.116 18.2674C105.603 18.9789 105.278 19.9626 104.863 20.7133C104.874 20.7092 104.911 20.6937 104.924 20.6882C107.691 19.634 109.017 22.3964 107.089 23.6953C106.923 23.8184 106.476 24.0923 106.291 24.1951C106.529 24.271 106.759 24.3687 106.979 24.4869C108.035 25.0499 108.394 26.2099 107.242 26.9506C106.685 27.2998 106.262 27.2661 105.617 27.2256C105.37 27.2101 105.37 27.2197 105.249 27.1648C105.005 27.0073 105.203 27.0482 104.538 26.0484C103.841 25.0252 102.952 24.139 101.919 23.4362C100.036 22.2493 96.8632 21.9974 95.1807 22.4652C94.3321 22.6918 93.5268 23.0517 92.7966 23.5307C92.5966 23.6462 92.4255 23.8038 92.2958 23.9919C92.1999 24.1381 92.1356 24.3019 92.107 24.4731C92.1448 24.4863 92.1852 24.4906 92.225 24.4859C92.7108 24.3245 93.1788 24.1162 93.6222 23.8641C96.8745 22.2751 102.343 23.0691 104.486 27.0359C104.852 27.7561 105.108 28.525 105.246 29.3178C105.436 30.3519 105.479 31.4068 105.374 32.4524C105.345 32.6851 105.357 32.7116 105.28 32.8412C105.23 32.9081 105.16 32.9576 105.079 32.9823C104.998 33.0071 104.911 33.0058 104.831 32.9786C104.549 32.9071 104.273 32.8112 104.008 32.692C101.955 31.7268 101.304 29.822 100.924 27.6229C100.893 27.4167 100.816 26.8956 100.795 26.6499C99.2288 27.8293 97.3179 28.4909 95.3399 28.5386C92.8688 28.5537 91.4371 27.3644 90.4291 26.9138C90.2301 26.6767 90.5277 26.8358 89.0963 26.6732C87.5057 26.4973 86.3628 26.0178 85.4995 24.6856C85.3926 24.5146 85.2996 24.3357 85.2216 24.1504C85.0607 23.7747 84.9859 23.3694 85.0022 22.9625C85.0374 22.1802 85.4985 21.2783 86.3262 21.2581C86.946 21.2662 87.5489 21.4568 88.0559 21.8049C87.6191 20.992 87.2785 20.1441 87.4775 19.2412C87.767 18.199 88.4031 17.8013 89.0104 17.8034C89.7567 17.811 90.3399 18.3967 90.8017 18.9672C90.7851 18.9109 90.7696 18.5448 90.7665 18.5077C90.7415 16.5406 92.2436 15.0297 93.6616 16.178C94.1007 16.5621 94.4514 17.0327 94.6904 17.5587C94.7787 16.5732 95.1202 15.6254 95.6833 14.8028C96.1648 14.1353 96.8911 13.7964 97.6476 14.1298C98.7254 14.6626 98.6451 16.0319 98.5922 17.2105C98.7014 17.055 98.8197 16.9058 98.9465 16.7637C100.227 15.4156 101.926 15.2098 102.479 16.8029C102.661 17.367 102.72 17.962 102.651 18.5496C102.955 18.2785 103.313 18.0711 103.702 17.9399C104.402 17.7271 104.876 17.9199 105.116 18.2674ZM97.1841 21.4684C98.7468 21.4918 100.66 21.8197 101.994 22.5683C103.144 23.2663 104.145 24.177 104.938 25.2492C105.225 25.6293 105.481 26.0316 105.702 26.4522C105.946 26.4804 106.194 26.4804 106.438 26.4522C106.697 26.3917 106.928 26.2492 107.094 26.047L107.1 26.0412L107.106 26.0295L107.108 26.0236L107.119 26.0064L107.121 26.0009L107.124 25.9954V25.9899L107.128 25.9841C107.135 25.9614 107.14 25.9497 107.145 25.9346V25.9291L107.148 25.9185V25.9126L107.15 25.9075V25.8961L107.152 25.8906L107.155 25.8339V25.8281V25.816V25.8102V25.8043V25.7982V25.792C107.151 25.771 107.148 25.7576 107.143 25.7353L107.14 25.7287V25.7222V25.7157L107.137 25.7088V25.7023L107.126 25.6751C107.116 25.6242 106.994 25.3214 106.336 25.0385C105.911 24.8727 105.466 24.7628 105.012 24.7117C104.933 24.7124 104.855 24.691 104.789 24.6501C104.722 24.6091 104.668 24.5504 104.634 24.4807C104.596 24.4001 104.588 24.3092 104.61 24.2232C104.633 24.1372 104.685 24.0614 104.758 24.0084C104.881 23.9325 105.062 23.9053 105.458 23.7362C105.861 23.5644 106.806 23.043 107.03 22.6766C107.121 22.5595 107.181 22.4221 107.203 22.2769C107.226 22.1316 107.211 21.9832 107.16 21.8451C107.108 21.707 107.023 21.5836 106.91 21.4862C106.797 21.3888 106.661 21.3204 106.515 21.2873C105.963 21.1662 105.385 21.2625 104.906 21.555C104.457 21.7935 104.046 22.0952 103.686 22.4504C103.621 22.5141 103.536 22.5539 103.444 22.5628C103.352 22.5712 103.26 22.5486 103.183 22.4989C103.106 22.4487 103.05 22.3741 103.023 22.2878C102.997 22.2014 103.002 22.1088 103.039 22.0259C103.343 21.4595 104.8 19.8884 104.538 18.8638L104.529 18.8565C104.528 18.8504 104.526 18.8443 104.525 18.8383L104.522 18.8325V18.8266L104.519 18.8208V18.815L104.515 18.8091V18.8036C104.465 18.7091 104.459 18.7005 104.457 18.6977L104.454 18.6947V18.6916L104.451 18.6892V18.6864L104.447 18.684V18.6816L104.444 18.6792L104.442 18.6771L104.439 18.6751V18.673L104.436 18.6713V18.6692H104.433H104.43V18.6675H104.427V18.6658L104.42 18.6627L104.408 18.6572C104.36 18.6399 104.31 18.6322 104.259 18.6345C103.839 18.6936 103.45 18.8854 103.153 19.1807C101.834 20.4668 101.927 21.2804 101.304 21.1075C101.221 21.0767 101.15 21.0192 101.104 20.9444C101.058 20.8695 101.039 20.7817 101.05 20.6951C101.108 20.4393 101.777 19.4316 101.879 18.4926C101.941 17.9082 101.894 16.9555 101.425 16.5801C101.038 16.2811 100.341 16.6245 99.9644 16.9173C99.2547 17.4281 98.7493 18.4754 98.4549 19.2889C98.302 19.7045 98.3245 19.7657 98.1072 19.8784C98.0214 19.9127 97.9262 19.9171 97.8374 19.8908C97.2193 19.6464 97.854 18.993 97.8424 16.2165C97.8403 15.7394 97.7585 15.0417 97.3141 14.8365C97.2112 14.79 97.0964 14.7752 96.9847 14.7939C96.7093 14.8714 96.4749 15.0491 96.3296 15.2902C95.4956 16.4952 95.4491 17.7824 95.3392 19.3381C95.3223 19.5859 95.3297 19.6777 95.1751 19.8172C95.1061 19.8695 95.0211 19.8977 94.9337 19.8972C94.8464 19.8968 94.7617 19.8678 94.6933 19.8148C94.4467 19.5856 94.5985 19.3738 94.0945 18.0784C94.0737 18.0347 94.005 17.8598 93.9423 17.747C93.7197 17.2858 93.189 16.5399 92.6628 16.5282C92.5201 16.5454 92.3834 16.5947 92.2636 16.6722C92.1438 16.7498 92.0441 16.8534 91.9724 16.9751C91.0549 18.2863 91.7224 19.7591 92.2324 21.2625C92.2683 21.3327 92.2794 21.4124 92.2639 21.4894C92.2484 21.5663 92.2072 21.6361 92.1468 21.6877C92.0857 21.7397 92.0082 21.7698 91.9272 21.773C91.8462 21.7763 91.7665 21.7525 91.7012 21.7056C91.236 21.3069 90.3776 18.8583 89.2442 18.5115C89.1404 18.4743 89.0286 18.4633 88.9193 18.4796C88.8099 18.4958 88.7065 18.5387 88.6187 18.6043C86.9633 20.0716 89.6848 22.8663 89.7479 23.299C89.7523 23.3513 89.7427 23.4038 89.7201 23.4513C89.6975 23.4989 89.6626 23.5399 89.6188 23.5704C89.5751 23.6008 89.524 23.6197 89.4706 23.6251C89.4171 23.6304 89.3632 23.6222 89.314 23.6011C88.9906 23.4324 87.7382 21.8482 86.3793 21.84C86.2822 21.833 86.1854 21.8572 86.1036 21.9087C85.2114 22.5759 85.5182 24.3027 86.691 25.2499C87.6491 26.1164 89.0773 26.19 90.3473 26.2993C90.5298 26.3154 90.4597 26.2955 90.6608 26.3986L90.6995 26.5148C92.0291 27.2084 93.14 27.8243 94.4907 27.9515C95.8617 28.0649 97.2393 27.8294 98.489 27.2679C99.3563 26.8932 100.156 26.3845 100.857 25.7614C100.915 25.7103 100.988 25.6801 101.066 25.6756C101.144 25.6712 101.22 25.6928 101.283 25.737C101.53 25.9401 101.342 25.9741 101.666 27.7154C101.801 28.5142 102.04 29.2927 102.378 30.032C102.922 31.0693 103.496 31.7052 104.635 32.1314C104.72 30.9103 104.587 29.684 104.242 28.5073C104.067 27.914 103.8 27.3503 103.451 26.8355C102.081 24.9203 99.6439 23.7043 96.5533 23.9242C94.4111 24.0844 93.8455 24.7522 92.7762 25.1465C92.624 25.2205 92.4576 25.2625 92.2877 25.2698C92.1178 25.277 91.9482 25.2493 91.79 25.1884C91.6879 25.1436 91.5959 25.0796 91.5191 25.0001C91.4092 24.8814 91.342 24.7311 91.3275 24.5718C91.3271 24.2677 91.4093 23.969 91.5656 23.706C91.8083 23.2935 92.169 22.959 92.6036 22.7436C93.2933 22.3259 94.0369 21.9995 94.8148 21.7729C95.5833 21.5508 96.3828 21.448 97.1841 21.4684Z" fill="black"/>
<path fill-rule="evenodd" clip-rule="evenodd" d="M68.4499 59.0909C69.3636 59.9299 68.5762 59.1934 69.9929 60.744C72.1753 62.8619 72.058 62.6377 71.9541 62.9371L71.7807 63L71.5748 62.9491C71.7381 62.9491 70.6406 62.6975 68.8718 60.6868C68.6208 60.4221 68.402 60.1369 68.2186 59.8355C68.1302 59.6627 68.0572 59.4847 68 59.3028C68.0116 59.0802 67.9626 59.177 68.0998 59.0066H68.1031L68.2739 59L68.4499 59.0909Z" fill="black"/>
<path fill-rule="evenodd" clip-rule="evenodd" d="M70.3921 56.1064C70.5791 56.3364 70.7513 56.58 70.9075 56.8356C71.8518 58.6829 72.0325 58.873 72.4011 59.5336C73.058 60.8194 72.9452 60.5166 73 60.8089L72.9256 60.965L72.7668 61L72.6041 60.9086C72.4633 60.7508 72.1163 60.3667 71.9227 60.0944C71.31 59.1687 70.7553 58.1994 70.2622 57.193C70.1531 56.9134 70.0654 56.6244 70 56.3291C70.0097 56.0879 69.9768 56.1733 70.0947 56.0028L70.2432 56L70.3921 56.1064Z" fill="black"/>
<path fill-rule="evenodd" clip-rule="evenodd" d="M74.7363 57L74.5399 56.9299C74.2187 56.7078 73.9189 56.4669 73.6431 56.2095C73.1075 55.6462 72.6582 55.0349 72.3044 54.3884C72.0874 54.0562 71.9833 53.6853 72.0022 53.3119C72.0022 53.2257 71.9893 53.2773 72.0649 53.0859L72.1986 53H72.202L72.369 53.0319C72.5348 53.1744 72.508 53.1455 72.5488 53.2108C72.5752 53.2508 72.8763 53.6796 72.9035 53.7532C73.4932 54.9872 73.8736 55.2168 74.7401 56.3941C74.9936 56.7289 74.929 56.5986 75 56.8247L74.9211 56.9606V56.9621L74.7363 57Z" fill="black"/>
<path fill-rule="evenodd" clip-rule="evenodd" d="M77.8718 53.004H77.8751L78 53.128C78.0073 53.9353 75.5416 58.1483 75.8319 64.691C75.8552 65.6993 76.0038 67.17 76.0552 67.7443C76.5141 71.7497 76.6827 71.4951 76.5862 71.9005C76.5829 71.9005 76.4296 72 76.427 72C76.4245 72 76.2416 71.9642 76.2391 71.9635L76.1251 71.8157C75.6587 70.0631 75.3223 68.284 75.1184 66.4903C74.933 64.4267 74.9654 62.3517 75.2153 60.2937C75.3209 59.3753 75.6159 58.0654 75.6225 58.0292C75.9342 56.5686 76.451 55.1506 77.1601 53.81C77.5761 53.0182 77.5218 53.1313 77.6871 53L77.8718 53.004Z" fill="black"/>
<path fill-rule="evenodd" clip-rule="evenodd" d="M67.467 64.0004L67.5908 64.1314C67.6009 64.7433 67.4868 63.9501 66.9398 67.0228C66.4684 69.6462 65.2055 73.4765 66.1098 77.4101C66.3657 78.5771 66.8687 79.6727 67.5835 80.62C68.3218 81.5695 69.2963 82.2991 70.4052 82.7327C71.3774 83.1157 72.422 83.2687 73.4606 83.1803C74.2753 83.0841 75.0723 82.8695 75.8275 82.5429C78.0407 81.6253 79.4236 79.582 80.5692 77.4788C81.7485 75.2694 81.4145 75.6607 81.6913 75.4107L81.8748 75.4175L82 75.5591C81.9892 75.807 82.0166 75.6884 81.8679 76.0326C81.118 77.7423 80.0469 79.9921 78.7403 81.3495C77.9297 82.2365 76.9393 82.9324 75.8381 83.3884C74.737 83.8444 73.5517 84.0497 72.3649 83.9898C70.8683 83.8874 69.435 83.3343 68.2462 82.4006C67.0573 81.4669 66.1661 80.1944 65.6852 78.7438C65.0958 76.9531 64.8831 75.0555 65.0609 73.1751C65.3817 69.8304 65.7702 69.1547 66.1514 67.5066C66.2454 67.1397 66.6508 65.1445 67.1507 64.1296L67.2842 64H67.4632L67.467 64.0004Z" fill="black"/>
<path fill-rule="evenodd" clip-rule="evenodd" d="M85.9128 51.0589L86 51.2158L85.9407 51.3851C85.754 51.483 85.7956 51.4712 85.6855 51.4868C84.178 51.6931 82.5212 52.7472 81.3141 53.6418C79.2317 55.1817 77.9663 56.8937 76.4433 58.894C76.4405 58.8963 76.2884 58.998 76.2855 59L76.1091 58.9848L76.1059 58.9831L76 58.8476C76.0155 58.6284 76.006 58.6782 76.0402 58.6044C76.5942 57.3885 77.3639 56.2743 78.3151 55.3111C79.279 54.2599 80.368 53.3207 81.5598 52.5128C82.2349 52.0416 82.9737 51.6609 83.7559 51.3811C83.7937 51.3689 84.3824 51.1755 84.4385 51.1755C84.8612 51.0732 85.294 51.0144 85.7296 51L85.9128 51.0589Z" fill="black"/>
<path fill-rule="evenodd" clip-rule="evenodd" d="M111.286 52C113.488 52.6162 115.85 53.5836 117.633 55.1016C119.123 56.3374 120.155 57.6377 121.216 60.0864C123.313 64.6826 124.078 69.3746 124.441 74.4367C124.502 75.5422 124.723 76.749 124.91 78.4057C125.002 79.1915 125.024 79.9844 124.974 80.7742L124.894 80.9385L124.729 81H124.725L124.569 80.9194L124.508 80.7494C124.576 79.1372 124.141 77.2638 123.949 75.9628C123.606 73.812 123.574 71.0905 122.726 67.1674C122.346 65.2764 121.792 63.4266 121.074 61.6425C120.456 60.1609 119.601 58.2298 118.536 57.0338C118.235 56.6883 117.914 56.3621 117.574 56.0568C115.897 54.5038 113.419 53.2653 111.149 52.4523L111.017 52.3336C111.017 52.3285 111 52.1605 111 52.1557L111.111 52.0228L111.286 52Z" fill="black"/>
<path fill-rule="evenodd" clip-rule="evenodd" d="M87.5533 50.0698C87.6662 50.2865 87.6262 50.1406 87.6801 50.6236C87.799 51.6598 87.8539 52.7014 87.8444 53.7433C87.933 57.8264 87.9676 57.5114 88 60.3905C87.9636 63.1563 88 62.8645 87.7085 63H87.7067L87.5303 62.9296C87.4229 62.7058 87.4524 62.8329 87.4094 62.3593C87.1445 59.4332 87.1747 59.0383 87.1128 57.2813C86.9834 52.2495 86.9761 52.3431 87.0366 51.4069C87.0665 50.9406 87.1306 50.269 87.1357 50.2328L87.2192 50.0691L87.3853 50H87.3886L87.5533 50.0698Z" fill="#FF7979"/>
<path fill-rule="evenodd" clip-rule="evenodd" d="M108.641 49.0003L108.803 49.0751L108.879 49.2397C109.052 50.8266 108.992 57.2488 108.981 57.6007C108.971 59.1619 108.837 60.7203 108.581 62.263C108.486 62.8734 108.502 62.768 108.39 62.9485L108.211 63H108.207C107.881 62.8172 108.018 63.0801 108.097 60.532C108.312 53.2256 108.022 52.5303 108.345 49.5421C108.394 49.1532 108.359 49.2727 108.471 49.0646L108.638 49L108.641 49.0003Z" fill="#FF7979"/>
<path fill-rule="evenodd" clip-rule="evenodd" d="M84.383 81.102C83.6795 75.0519 82.4304 68.7599 85.3088 63.0792C88.2078 62.4015 105.771 62.3254 111.479 62.8147C113.482 69.0019 112.121 75.3012 110.938 81.5" fill="#FF7979"/>
<path fill-rule="evenodd" clip-rule="evenodd" d="M111.308 62.2946C111.73 62.3223 111.731 62.3247 111.838 62.385C111.992 62.5071 111.986 62.5894 112.081 62.8852C113.929 69.073 112.622 75.1616 111.373 81.513C111.302 81.8702 111.341 81.7707 111.215 81.9626L111.043 82H111.04L110.894 81.8988C110.842 81.6466 110.836 81.8378 110.965 81.1248C112.037 75.0996 111.868 75.4702 111.903 75.4702C112.508 70.9418 112.589 67.3165 111.355 63.0612C111.351 63.0612 111.17 63.0464 109.967 62.9715C104.588 62.7314 99.1618 62.7223 94.0635 62.8171C92.941 62.8383 86.5142 62.9921 85.4458 63.3074C84.6104 65.0606 84.0812 66.9498 83.8822 68.8895C83.3037 74.2824 84.6484 80.7784 84.437 81.5032L84.2874 81.5912H84.2857L84.1209 81.542L84.0332 81.3872C83.1794 75.112 81.8957 68.6345 84.7947 62.9388C84.9721 62.5678 84.9876 62.6059 85.8628 62.472C91.1849 61.8521 106.71 61.8967 111.308 62.2946Z" fill="#FF7979"/>
<path fill-rule="evenodd" clip-rule="evenodd" d="M96.3546 75.0324C96.5327 75.143 96.701 75.2718 96.8571 75.4172C97.5677 76.3082 98.085 76.6508 98.6992 77.3301C98.9611 77.6209 98.845 77.4382 99 77.7241L98.9851 77.9034L98.8457 78L98.6498 77.9821C98.3238 77.8517 98.0134 77.6782 97.7254 77.4654C97.3137 77.1074 96.9254 76.718 96.5634 76.3C96.3021 76.0522 96.1082 75.7297 96.003 75.368L96 75.3627L96.0284 75L96.3546 75.0324Z" fill="black"/>
<path fill-rule="evenodd" clip-rule="evenodd" d="M114.782 82.9654C114.681 82.7948 114.708 82.8844 114.529 82.2875C114.416 81.9031 114.452 82.0583 114.065 80.0999C114.005 79.8376 113.986 79.5589 114.01 79.2845L114.118 79L114.312 79.1596C114.388 79.3219 114.454 79.493 114.511 79.6712C114.524 79.7229 114.887 81.531 114.922 81.7678C114.94 81.8847 114.977 82.2848 114.98 82.3424C115.005 82.7755 115.01 82.6349 114.975 82.8901L114.892 83C114.889 82.9997 114.785 82.9664 114.782 82.9654Z" fill="black"/>
<path fill-rule="evenodd" clip-rule="evenodd" d="M80.9934 47.0191C80.3503 46.819 79.7739 46.4679 79.32 46C78.1936 47.6372 77.1293 48.9858 75.7422 50.7941C75.4314 51.1993 74.7483 52.187 75.0964 52.7112C75.6755 53.587 76.7681 52.2393 77.1628 51.7337C78.675 49.7885 79.3528 48.9492 81 46.9963" fill="#6039BB"/>
<path fill-rule="evenodd" clip-rule="evenodd" d="M79.3193 46.006C79.4617 46.0503 79.4723 46.0827 79.5675 46.2025C79.896 46.6055 80.3037 46.9261 80.7615 47.1413L80.9216 47.1847L81 47.3405C80.9707 47.4532 80.975 47.4222 80.9788 47.4759L80.96 47.4959L80.9541 47.5193C77.717 52.2902 77.5756 52.6572 77.0036 53.3071C76.7342 53.6683 76.3522 53.9139 75.9273 53.999C75.7786 54.0065 75.6308 53.9713 75.4991 53.8972C75.3673 53.8232 75.2565 53.7128 75.178 53.5777C75.0789 53.405 75.0192 53.2098 75.0039 53.0079C74.9886 52.806 75.0181 52.6031 75.09 52.4156C75.3251 51.5969 75.9245 50.8439 77.2474 48.8498C79.1414 45.9382 79.0199 45.9773 79.3193 46.006ZM75.7878 52.5668C75.7281 52.7201 75.7046 52.8868 75.7194 53.0522V53.0585C75.7232 53.0719 75.7266 53.0812 75.7325 53.1006L75.7341 53.1036L75.7372 53.1096V53.1126V53.1142V53.1172C75.7503 53.1398 75.7648 53.1613 75.7806 53.1816C75.7893 53.1936 75.8053 53.2117 75.8056 53.212H75.8087L75.8115 53.215L75.8134 53.2177H75.8162H75.8193L75.8237 53.2217H75.8268L75.8299 53.2247L75.8331 53.2277H75.8359L75.8418 53.2303H75.8446H75.8477H75.8505H75.8562L75.8908 53.2277L75.8949 53.2257H75.9005L75.9049 53.2237H75.9092H75.9117H75.9161L75.9205 53.2217H75.9245L75.9373 53.2163H75.9414C75.9545 53.2117 75.9483 53.213 75.9614 53.2087L75.9654 53.2053C75.9948 53.1933 76.0232 53.1787 76.0504 53.1616C76.5287 52.8587 77.0426 52.0246 77.3776 51.5315C78.2693 50.2107 79.4564 48.6777 80.3768 47.4946C80.2132 47.4305 80.054 47.3543 79.9004 47.2664C79.6953 47.1522 79.5017 47.0158 79.3227 46.8594C77.9215 49.3459 76.0444 51.7027 75.7862 52.5668H75.7878Z" fill="#6039BB"/>
<path fill-rule="evenodd" clip-rule="evenodd" d="M86.6091 26.0303C89.3935 26.11 92.0383 27.3353 93.9794 29.445C95.9206 31.5546 97.0045 34.3816 97 37.3231C97.0003 38.3209 96.8833 39.3149 96.6516 40.2822V40.2873C95.9927 42.9843 94.4379 45.3414 92.2707 46.9289C90.1035 48.5164 87.4682 49.2286 84.8453 48.9355C83.9311 48.8413 83.0326 48.6202 82.1732 48.2779C80.1032 47.466 78.3124 46.0153 77.0335 44.1144C75.7545 42.2135 75.0466 39.9503 75.0017 37.619C74.9721 35.8659 75.3285 34.1296 76.0428 32.5468C76.5263 31.4751 77.1636 30.4886 77.9321 29.6222C79.0323 28.3767 80.3828 27.4075 81.8844 26.7859C83.386 26.1643 85.0005 25.9061 86.6091 26.0303ZM84.9098 26.9416C83.2369 27.1701 81.6464 27.8438 80.2877 28.8995C78.9291 29.9553 77.8468 31.3584 77.1425 32.977C76.4341 34.6142 76.1408 36.4177 76.2915 38.2106C76.4936 40.8215 77.6323 43.2523 79.4747 45.0063C81.3172 46.7603 83.7243 47.705 86.2043 47.6475C88.6843 47.5899 91.0498 46.5344 92.8175 44.6966C94.5852 42.8589 95.6216 40.3776 95.7149 37.7599C95.7345 37.1517 95.7055 36.5428 95.6283 35.9398C95.4745 34.7742 95.1295 33.6459 94.6087 32.6055C93.6477 30.6236 92.1218 29.0103 90.2462 27.9931C88.616 27.0613 86.7499 26.6936 84.9112 26.9416H84.9098ZM86.6091 26.0314C86.46 26.0278 86.4606 26.0282 86.6091 26.0314V26.0314Z" fill="#6039BB"/>
<path d="M89.3868 36.1979C89.4329 35.1416 88.828 34.2573 88.0358 34.2228C87.2436 34.1883 86.564 35.0165 86.518 36.0728C86.472 37.1291 87.0768 38.0133 87.869 38.0479C88.6612 38.0824 89.3408 37.2541 89.3868 36.1979Z" fill="black"/>
<path fill-rule="evenodd" clip-rule="evenodd" d="M88.0422 34.0018C88.2727 33.9916 88.5031 34.025 88.7227 34.1004C89.4935 34.4147 90.0442 35.2568 89.9972 36.4083C89.9894 36.7258 89.9388 37.0405 89.847 37.3427C89.745 37.7167 89.5584 38.0583 89.3034 38.3375C89.0484 38.6167 88.7329 38.8248 88.3846 38.9437C88.0989 39.0208 87.7993 39.0187 87.5146 38.9374C87.2299 38.8561 86.9695 38.6984 86.7583 38.4793C86.4992 38.2153 86.2999 37.8918 86.1757 37.5336C85.5881 35.9138 86.5408 33.933 88.0422 34.0018ZM88.0602 34.8344C87.316 34.9762 87.1038 36.0965 87.2877 36.8759C87.3127 37.0507 87.3803 37.2155 87.4837 37.3539C87.587 37.4923 87.7226 37.5995 87.8769 37.6648H87.8846L87.8906 37.6669H87.8983H87.9059H87.9119L87.9196 37.6691H87.9626H87.9702H87.9779H87.9839H87.9919H87.9979H88.0055C88.1474 37.6256 88.2774 37.5462 88.3842 37.4376C88.491 37.329 88.5715 37.1944 88.6188 37.0454C88.9775 36.199 88.5442 34.9805 88.0605 34.828L88.0602 34.8344Z" fill="#010000"/>
<path fill-rule="evenodd" clip-rule="evenodd" d="M93.9312 34.0901L94 34.2589C93.9753 34.924 93.8912 35.5875 93.7483 36.2459C93.5519 37.2827 93.5591 37.8137 93.1004 40.3779C92.9906 40.6599 92.9336 40.9498 92.9309 41.241L92.9343 41.2561V41.2634C92.9407 41.2936 92.9522 41.3231 92.9685 41.3516L92.9728 41.3544V41.3589L92.9771 41.3621V41.3666L92.981 41.3711L92.9853 41.3743C93.045 41.441 93.2202 41.4932 93.5114 41.5346C93.6799 41.5557 93.5783 41.5269 93.8686 41.6336L93.9538 41.7881V41.7897L93.8378 41.9368C93.5658 42.0057 93.6183 42.0028 93.4392 41.9977C93.1991 42.0084 92.9588 41.9779 92.7415 41.9089C92.5242 41.84 92.3371 41.735 92.1983 41.6041C92.0816 41.4609 92.0158 41.3018 92.0058 41.1391C91.9461 40.2677 92.3654 38.3945 92.4602 37.5894C92.5256 37.1888 92.4669 37.1885 92.7572 35.6918C92.8747 35.173 93.0723 34.6636 93.3468 34.1718L93.5085 34.0362L93.7372 34C93.7444 34 93.9249 34.0872 93.9312 34.0901Z" fill="#010000"/>
<path fill-rule="evenodd" clip-rule="evenodd" d="M84.4254 29.0003C84.7861 28.9972 85.1413 29.0961 85.455 29.287C85.5943 29.3734 85.7141 29.4916 85.8059 29.6332C85.8978 29.7748 85.9594 29.9363 85.9865 30.1063C86.193 31.5315 83.9808 32.9807 83.0112 33.8684C82.4564 34.3947 81.9647 34.889 81.2277 34.9975C80.2049 35.0593 79.877 33.9818 80.0395 32.908C80.0846 32.6145 80.177 32.3316 80.3125 32.072C80.9238 30.8162 81.9312 29.8338 83.1552 29.2999C83.6238 29.0972 83.5534 29.1261 83.7204 29.1341L83.7976 29.075C84.0031 29.0223 84.214 28.9972 84.4254 29.0003ZM83.8874 29.5564L83.7882 29.5328C82.9818 30.0044 82.2596 30.625 81.6547 31.366C81.3281 31.753 81.0597 32.1922 80.8593 32.6678C80.7741 32.8898 80.7309 33.1278 80.7321 33.3678C80.7334 33.6079 80.7792 33.8453 80.8667 34.0662V34.0711L80.8709 34.076L80.8765 34.086L80.8794 34.0892L80.8849 34.0992L80.8878 34.1024L80.8907 34.1072L80.8962 34.1142L80.8992 34.1191L80.9021 34.1222L80.9063 34.1257V34.1291L80.9108 34.1323L80.9222 34.1458H80.9251L80.9306 34.1524H80.9335L80.9364 34.1559H80.9394L80.9423 34.159H80.9452L80.9481 34.1625L80.9569 34.1677L80.9595 34.1709L80.9887 34.1882H80.9932C80.9974 34.1911 81.0018 34.1935 81.0065 34.1952H81.0094C81.012 34.196 81.0145 34.1972 81.0169 34.1987H81.0211H81.024H81.0285C81.0309 34.2002 81.0334 34.2013 81.036 34.2021H81.0448L81.0493 34.2042H81.0581H81.0626L81.1239 34.207H81.1297H81.1372H81.1433H81.1508H81.1566C81.3089 34.1818 81.4558 34.1279 81.5905 34.0478C81.8177 33.9092 82.0299 33.744 82.2232 33.5552C83.7846 32.1231 84.5778 31.6904 85.1741 30.7654C85.2241 30.6845 85.2674 30.5993 85.3039 30.5106C85.3315 30.4442 85.3504 30.374 85.36 30.302L85.3619 30.2944V30.2784V30.2718L85.3639 30.2273V30.2207V30.1998V30.1936V30.187L85.3613 30.1741V30.1679L85.3587 30.1546V30.1484C85.3541 30.1254 85.3509 30.1105 85.3489 30.0983L85.346 30.0935L85.3434 30.0806L85.3408 30.0754V30.0691L85.3379 30.0643V30.0577C85.3359 30.054 85.334 30.0501 85.3324 30.0462V30.0396C85.2889 29.9407 85.221 29.8565 85.1359 29.7963C85.1008 29.7691 85.0644 29.7439 85.0269 29.7208L85.0178 29.717L85.0107 29.7121C84.6594 29.5403 84.2679 29.486 83.8874 29.5564Z" fill="#010000"/>
<path fill-rule="evenodd" clip-rule="evenodd" d="M79.8013 37.0335C79.9598 37.1473 79.9331 37.1175 79.9498 37.1741C80.0213 37.1667 79.9762 37.1614 80.056 37.1878C80.1514 37.2242 80.2428 37.274 80.3283 37.3361C80.5066 37.4741 80.6572 37.6568 80.7693 37.8714C80.8815 38.0859 80.9525 38.3269 80.9772 38.5775C81.031 38.9981 80.9892 39.428 80.8561 39.8231C80.7838 40.0806 80.661 40.3142 80.4978 40.5047C80.3346 40.6953 80.1357 40.8374 79.9172 40.9195C79.6988 41.0015 79.467 41.0212 79.2409 40.9769C79.0147 40.9326 78.8007 40.8256 78.6162 40.6646C78.0192 40.1848 77.8687 39.1694 78.1097 38.368C78.1768 38.0717 78.3037 37.799 78.4796 37.5737C78.6554 37.3483 78.8749 37.1769 79.1191 37.0742C79.3398 36.9918 79.5747 36.9777 79.8013 37.0335ZM79.7479 37.5182C79.6143 37.5294 79.4846 37.5759 79.3682 37.6542C79.1925 37.7846 79.0444 37.9608 78.935 38.1694C78.8698 38.278 78.8167 38.3961 78.7771 38.5209C78.7503 38.6111 78.7273 38.7028 78.7082 38.7958C78.6064 39.2847 78.7252 39.8934 79.1132 40.0895C79.3009 40.2013 79.5169 40.2264 79.7194 40.1598C79.8401 40.1015 79.949 40.0136 80.0389 39.9018C80.1288 39.79 80.1977 39.657 80.241 39.5114C80.279 39.4115 80.3098 39.3081 80.333 39.2021C80.3689 39.0358 80.3866 38.8648 80.3859 38.6931C80.3866 38.4995 80.3527 38.3078 80.2864 38.1308C80.2046 37.9075 80.0541 37.7295 79.8654 37.6327L79.7645 37.516C79.7591 37.5178 79.7535 37.5188 79.7479 37.5192V37.5182Z" fill="#010000"/>
<path fill-rule="evenodd" clip-rule="evenodd" d="M32.0062 31.0015C32.9623 31.0329 33.9066 31.2341 34.7992 31.5969C36.0137 32.0592 35.8 31.9575 35.9791 32.1248L36 32.3052L35.9983 32.3084L35.8852 32.4476L35.7047 32.4743C34.5724 32.1402 33.4121 31.9228 32.24 31.8252C31.9172 31.781 31.5891 31.8284 31.2895 31.9626L31.2812 31.9655C31.0618 32.1066 30.8785 32.3024 30.7473 32.5356H30.7456C30.464 33.0806 30.2614 33.6671 30.1447 34.2756C29.8101 35.836 29.6992 37.4406 29.8159 39.0357C29.8795 39.9877 30.0288 41.1749 30.7248 41.7764C31.5793 42.5175 33.2925 42.3173 34.3965 42.133C35.3396 41.9913 35.0764 41.97 35.3786 42.0422L35.4811 42.1998L35.4418 42.3858L35.2894 42.4969C34.4852 42.709 33.6691 42.8672 32.8461 42.9708C31.7656 43.0894 30.4783 42.8658 29.8313 41.9517C28.6944 40.5124 28.932 36.2539 29.3257 34.4054C29.5629 33.2839 29.8921 31.9532 30.8013 31.3196C30.9616 31.2085 31.1379 31.1257 31.3233 31.0744C31.5468 31.0179 31.7765 30.9934 32.0062 31.0015Z" fill="#010000"/>
<path fill-rule="evenodd" clip-rule="evenodd" d="M32.4769 33.0833C32.6253 33.3602 32.7414 33.6897 32.8183 34.0516C32.9789 34.8186 32.9987 35.9964 33 36.8181C32.9921 37.8696 32.9195 38.916 32.7837 39.9376V39.9407C32.7232 40.3678 32.742 40.2208 32.7215 40.3629C32.611 40.9622 32.5039 41.5705 32.2094 41.9537L32.1103 42L32.0237 41.9149L32 41.7441L32.0458 41.574C32.2152 41.2949 32.305 40.6036 32.344 40.1907C32.5121 38.4963 32.6424 37.2859 32.546 35.4736C32.5114 34.8643 32.4474 34.302 32.4421 34.2632C32.4131 33.9521 32.3563 33.652 32.274 33.3749L32.2542 33.1902L32.2958 33.0405L32.3862 33L32.4769 33.0833Z" fill="#010000"/>
<path fill-rule="evenodd" clip-rule="evenodd" d="M32.8453 34C32.1632 35.2603 32.0643 36.5469 32.0069 37.8878C31.9946 38.1699 31.9988 38.4527 32.0194 38.7341C32.0396 38.993 32.0446 39.8061 32.2509 39.9964C32.2807 40.0249 32.4104 39.8766 32.4341 39.8452C32.9628 39.1516 32.9981 36.4834 33 35.5328C32.9976 35.3581 33.0064 34.2224 32.6922 34.3787" fill="black"/>
<path fill-rule="evenodd" clip-rule="evenodd" d="M32.5904 34.0282L32.5934 34.03L32.6843 34.175C32.653 34.416 32.6761 34.3203 32.606 34.4667C32.9099 34.706 32.9644 35.5533 32.9749 35.9442C33.0488 37.1386 32.9899 39.4819 32.377 40.5086C32.165 40.8333 31.8059 41.1488 31.4779 40.9243C31.1654 40.6863 31.0861 40.1621 31.0555 39.7392C31.0134 39.3251 30.9952 38.909 31.0011 38.4928C31.0776 36.7153 31.1995 35.5023 32.2674 34.0978V34.0961L32.4236 34L32.5904 34.0282ZM31.8195 37.6183C31.7784 38.0489 31.7614 38.4815 31.7685 38.914C31.7685 38.9722 31.8202 39.7698 31.84 39.8707C32.2381 38.8193 32.392 35.7337 32.3368 35.1086C32.0618 35.9202 31.8881 36.7632 31.8195 37.6183Z" fill="#010000"/>
<path fill-rule="evenodd" clip-rule="evenodd" d="M42.601 30.4227C42.6186 30.427 48.7816 32.114 48.9709 32.1723C50.6891 32.6735 51.0842 32.7919 51.5073 33.0097C51.8405 33.1731 52.1326 33.4191 52.3594 33.7274C52.8207 34.3655 52.9571 35.3355 52.994 36.1399C53.0145 36.5902 52.9823 37.0414 52.898 37.4832C52.7682 38.0368 52.6075 38.5816 52.4168 39.1147L52.301 39.2569L52.1303 39.2768C52.1279 39.2739 52.0001 39.1581 51.9974 39.1559C51.9606 38.8133 51.943 39.227 52.2863 37.7341C52.3404 37.476 52.3737 37.2134 52.386 36.9493C52.4192 36.1289 52.2438 34.6665 51.7308 34.1412C51.3682 33.5013 47.9345 32.7321 44.2923 31.7241C42.959 31.3547 40.9672 30.706 39.5937 30.8251C39.3178 30.8558 39.0608 30.99 38.8685 31.204C38.7019 31.3804 38.5466 31.5685 38.4036 31.7671C38.0616 32.2493 37.7761 32.7745 37.5535 33.3311C37.1212 34.441 36.8594 35.6184 36.7781 36.8177C36.6846 37.9591 36.7659 39.109 37.0188 40.2223C37.1189 40.6966 37.3155 41.1414 37.5946 41.525C38.5264 42.7304 40.9446 42.408 42.3935 42.2548H42.3951L42.5671 42.3102L42.6555 42.4734V42.4766L42.607 42.6575L42.4499 42.7535C42.2972 42.7464 40.3612 43.1769 38.8373 42.9159C36.798 42.5669 36.354 40.9425 36.0624 38.8033C35.8275 36.4832 36.2591 34.1416 37.2997 32.0909C37.6516 31.4064 38.1288 30.8048 38.7028 30.3221C38.8827 30.2075 39.0782 30.1236 39.2822 30.0733C40.214 29.8665 41.3524 30.1338 42.601 30.4227Z" fill="#010000"/>
<path fill-rule="evenodd" clip-rule="evenodd" d="M35.3754 35.0676V35.0604L35.3817 35.0664L35.389 35.0705V35.0632L35.4026 35.0717V35.0624C35.4067 35.0654 35.4109 35.0676 35.4152 35.0689V35.0595L35.4247 35.064L35.4228 35.0543L35.4332 35.0591L35.4313 35.0494H35.4408L35.4389 35.0401H35.4475L35.4456 35.0308L35.4486 35.0328H35.453L35.45 35.0231H35.4532H35.4562L35.4523 35.0134H35.4532H35.4562C35.455 35.01 35.4537 35.0067 35.4523 35.0036V35.0016L35.4541 35.0057H35.4562L35.4583 35.0097H35.4603V35.0117L35.4686 35.0199H35.4707C35.5317 35.0562 35.594 35.0853 35.6572 35.1069C35.7104 35.1474 35.7177 35.1742 35.7585 35.2098C35.8705 35.367 35.7355 35.1361 36 35.6035C35.7987 35.8713 35.7824 35.9223 35.6089 35.9952C35.5797 36.0033 35.5498 36.0011 35.5211 35.9887C35.3299 35.9503 35.1537 35.7876 35.0269 35.5327V35.5306C35.0072 35.4606 34.998 35.3829 35.0003 35.3048C35.0026 35.2268 35.0163 35.1511 35.0401 35.0851L35.358 35.0446L35.3754 35.0676Z" fill="#010000"/>
<path fill-rule="evenodd" clip-rule="evenodd" d="M35.807 39.0989C35.871 39.1593 35.8085 39.0669 36 39.3948C35.9173 39.5497 35.8167 39.6747 35.7045 39.7623L35.6744 39.7849H35.6733C35.6638 39.7898 35.6545 39.7958 35.6454 39.8029C35.5673 39.8178 35.4918 39.8591 35.4232 39.9241L35.42 39.9287L35.4171 39.932H35.416L35.4111 39.9366L35.4081 39.9413L35.4019 39.9474L35.3989 39.9525L35.3959 39.9553L35.3906 39.9632L35.3825 39.9758L35.3793 39.9791L35.3723 39.9902H35.3701H35.3663L35.3623 39.9931H35.3603H35.3574C35.3574 39.9931 35.2785 39.9963 35.2746 39.9967C35.2213 39.9927 35.2949 40.0625 35 39.718V39.7148C35.0077 39.4178 35.0313 39.4016 35.126 39.2801C35.1994 39.1908 35.2809 39.1219 35.3672 39.0758C35.4366 39.0222 35.5124 38.9964 35.5887 39.0004C35.665 39.0044 35.7397 39.0381 35.807 39.0989Z" fill="#010000"/>
<path fill-rule="evenodd" clip-rule="evenodd" d="M39.6885 32.0818L39.7003 32.0955H39.7039C40.1097 32.4855 40.4185 32.947 40.6102 33.45C40.7186 33.7848 40.698 33.6683 40.696 33.7055C40.7099 33.7525 40.7454 33.8936 40.7545 33.9312C40.9741 34.9108 41.0468 35.9119 40.9708 36.9084C40.906 38.0041 40.6425 39.0833 40.1907 40.1046C39.8348 40.8645 39.3856 41.9196 38.4615 42C38.2242 41.9909 38.3199 42.0281 38.0621 41.8947L38 41.7192V41.716L38.1024 41.5598L38.3057 41.4984H38.3203H38.3258H38.3385H38.344H38.3511H38.3567H38.3622H38.3677H38.3733H38.3768H38.3824L38.399 41.4942H38.4045C38.4045 41.4942 38.4468 41.4812 38.4579 41.4784L38.4619 41.4753C38.465 41.4746 38.468 41.4737 38.471 41.4724L38.4765 41.4693H38.482C38.4852 41.4693 38.4963 41.463 38.501 41.4605L38.5046 41.4574C38.5749 41.4395 38.7232 41.3113 38.883 41.0562V41.053C39.0731 40.7027 39.2276 40.3379 39.3444 39.9631C39.6567 39.2023 39.8763 38.4139 39.9993 37.6114C40.1339 36.6969 40.1402 35.771 40.0179 34.855C39.9631 34.4549 39.8817 34.0581 39.7739 33.6665C39.6687 33.2172 39.4932 32.7831 39.2523 32.377L39.2128 32.1895L39.3061 32.0379L39.4975 32L39.6885 32.0818Z" fill="#010000"/>
<path fill-rule="evenodd" clip-rule="evenodd" d="M40.459 33C39.1494 33.4696 38.6245 34.5372 38.3127 35.5011C38.096 36.1649 37.8888 37.886 38.0683 38.488C38.2332 39.104 38.8685 40.3434 39.5906 39.91C40.9994 39.0642 41.0484 36.0316 40.9821 34.7044C40.9571 34.1837 40.9103 33.5029 40.3691 33.1007" fill="black"/>
<path fill-rule="evenodd" clip-rule="evenodd" d="M40.4467 33.1114V33.1146L40.4552 33.2843C40.6898 33.603 40.835 33.9805 40.8754 34.3764C40.9374 34.877 40.974 35.3804 40.9854 35.8848C41.0431 37.0383 40.9299 38.194 40.6498 39.3132C40.4672 40.0041 40.005 41.0299 39.3161 40.9993C38.7273 40.9729 38.3811 40.1749 38.1978 39.6045C37.9995 38.9026 37.9493 38.7137 38.0517 37.1814C38.0674 36.8162 38.1647 36.2021 38.1801 36.0931C38.4306 34.7944 38.9164 33.5554 40.1067 33.0146C40.1432 33.0007 40.1023 33.0069 40.3115 33L40.4467 33.1114ZM38.9399 36.2337C38.8534 36.7825 38.8008 37.3362 38.7822 37.8917C38.7691 38.2185 38.7772 38.5459 38.8065 38.8717C38.8859 39.348 39.0696 39.8 39.3441 40.1943L39.3489 40.1978C39.3988 40.1535 39.4445 40.1046 39.4854 40.0516C40.2736 39.1365 40.4242 34.9336 40.2576 34.1057C40.237 33.9942 40.2053 33.8851 40.163 33.78C40.1413 33.7245 40.1152 33.6708 40.0849 33.6197C39.4059 34.256 39.1468 35.2342 38.9399 36.2337Z" fill="#010000"/>
<path fill-rule="evenodd" clip-rule="evenodd" d="M39.9982 34.3954C40.008 34.6544 39.9778 34.9133 39.9102 35.1498C39.5594 36.6504 39.7685 36.2162 39.3999 37.7304L39.3073 37.932L39.1872 38H39.1848L39.0792 37.8882C39.0324 37.7444 39.0091 37.5845 39.0115 37.423C38.9962 37.1703 38.9962 36.9158 39.0115 36.6631C39.0846 36.0275 39.1955 35.4041 39.3426 34.8011C39.3865 34.5881 39.4676 34.3988 39.5766 34.2551C39.6876 34.0948 39.6141 34.1535 39.9169 34L39.9982 34.3954Z" fill="white"/>
<path fill-rule="evenodd" clip-rule="evenodd" d="M32.9089 36.6829C32.9008 36.9884 32.8325 37.2889 32.7084 37.5655C32.6248 37.7664 32.7049 37.6592 32.3516 38C32.0702 37.6227 32.107 37.7062 32.0663 37.509C31.974 37.0551 31.9781 36.5854 32.0784 36.1334C32.1289 35.6313 32.1269 35.6223 32.1664 35.5323C32.22 35.4335 32.2799 35.3387 32.3458 35.2484L32.6459 35C33.1 35.5966 33.0312 35.4779 32.9089 36.6829Z" fill="white"/>
<path fill-rule="evenodd" clip-rule="evenodd" d="M53.8567 37.0016C54.0815 36.9891 54.3035 37.0511 54.4817 37.1761C54.9697 37.4998 55.0544 38.1884 54.9727 38.7197C54.8332 39.5982 54.2043 40.0266 53.4974 39.9987C53.374 39.9898 53.2529 39.9628 53.139 39.9188L53.0184 39.8146C53.0184 39.8127 52.9997 39.6778 53 39.6778L53.1007 39.5771C53.4085 39.5333 53.4187 39.5755 53.5854 39.5183C53.6813 39.4893 53.7702 39.444 53.8474 39.3848C54.0108 39.2626 54.1378 39.1051 54.2167 38.9268C54.3514 38.6313 54.3731 37.9118 54.122 37.7143V37.7118L54.1181 37.7091L54.1133 37.7003C54.1115 37.7003 54.0717 37.6678 54.0705 37.6672C54.0528 37.6577 54.0356 37.6473 54.0192 37.636H54.0165C53.9773 37.6105 53.9362 37.5873 53.8935 37.5668C53.8404 37.5378 53.7837 37.5144 53.7247 37.497C53.6496 37.4697 53.4968 37.4286 53.4642 37.4202L53.3208 37.34L53.2653 37.2243L53.3319 37.1135L53.4826 37.0437H53.4896C53.61 37.0178 53.7331 37.0037 53.8567 37.0016Z" fill="black"/>
<path fill-rule="evenodd" clip-rule="evenodd" d="M66.9751 51.0962C67.0284 51.4229 67.1 51.2961 65.9729 52.335C65.4598 52.8148 62.9324 54.8808 61.497 55.8653C61.4904 55.8706 61.4062 55.9351 61.402 55.9374L61.2185 56L61.0593 55.9423L61 55.7744L61.0547 55.5753V55.5734C61.0898 55.5289 61.0484 55.5662 61.3448 55.1615C61.6776 54.7484 62.067 54.3922 62.4996 54.1052C64.3559 52.6846 64.5498 52.2976 66.6205 51.0377L66.8176 51L66.9751 51.0962Z" fill="black"/>
<rect x="49" y="73" width="66" height="65" rx="6" fill="#19C9D1"/>
<path fill-rule="evenodd" clip-rule="evenodd" d="M71.5925 96.6162C71.6863 92.7744 75.0827 88.9014 79.5422 88.9014C84.6975 88.9014 87.5272 93.2796 87.5741 96.0797C82.4032 96.5222 74.2971 96.6788 71.5925 96.6162Z" fill="#6039BB"/>
<path fill-rule="evenodd" clip-rule="evenodd" d="M78.9169 80.2276C81.0157 80.0357 82.6885 81.0774 82.751 83.5642C82.8136 86.0509 81.0235 87.1866 79.6087 87.1866C78.1938 87.1866 75.8683 86.2115 75.7119 84.038C75.5556 81.8646 76.8454 80.4156 78.9169 80.2276Z" fill="#6039BB"/>
<path fill-rule="evenodd" clip-rule="evenodd" d="M113.233 103.012C113.139 95.4533 113.538 87.5545 113.233 80.0942C113.026 75.0032 112.893 72.0152 107.202 71.3103C103.806 70.8912 99.4362 71.2241 96.1375 71.2437C95.9499 71.2515 95.8014 71.4121 95.8092 71.6001C95.817 71.7763 95.9577 71.9173 96.1336 71.929C99.5847 72.1013 103.567 71.9956 106.718 72.1836C111.736 72.4851 112.451 75.1168 112.459 80.6111C112.471 88.138 112.264 95.6609 112.334 103.199C112.404 110.981 113.022 119.624 112.795 127.303C112.572 134.889 109.024 134.587 103.732 134.717C87.793 135.116 70.8929 134.822 54.9934 134.94C54.6299 134.944 54.6299 135.582 54.9934 135.586C70.2285 135.743 87.6367 136.154 102.973 135.727C110.071 135.527 113.217 135.813 113.733 127.542C114.155 120.709 113.28 107.163 113.233 103.012Z" fill="black"/>
<path fill-rule="evenodd" clip-rule="evenodd" d="M83.8415 71.2046C74.9381 71.1067 65.4563 70.8326 56.5841 71.1459C52.2614 71.2986 47.1452 72.8925 47.1452 78.0696C47.1374 91.968 47.0632 105.863 47.0827 119.761C47.0866 122.988 46.8326 127.088 47.1961 130.17C47.3641 131.599 47.8292 132.594 48.8806 133.413C49.1855 133.652 49.7795 133.252 49.377 132.853C48.4038 131.881 48.1263 130.879 48.0403 129.637C47.8058 126.203 48.0325 122.189 48.0325 118.676C48.0403 105.15 47.9934 91.6234 47.9934 78.1009C47.9934 73.0295 53.3948 72.0857 57.3893 72.0387C66.1754 71.9291 74.9772 72.1523 83.7673 72.1053C84.3418 72.1014 84.4239 71.2085 83.8415 71.2046Z" fill="black"/>
<path fill-rule="evenodd" clip-rule="evenodd" d="M87.238 119.064C87.8516 119.013 88.3949 119.471 88.4457 120.086C88.4535 120.16 88.4496 120.231 88.4418 120.305C88.3206 121.386 87.066 121.382 86.5657 120.67C86.2296 120.231 86.3117 119.6 86.7494 119.264C86.8902 119.154 87.0582 119.084 87.238 119.064Z" fill="white"/>
<path fill-rule="evenodd" clip-rule="evenodd" d="M87.238 104.004C87.8516 103.953 88.3949 104.411 88.4457 105.026C88.4535 105.1 88.4496 105.171 88.4418 105.245C88.3206 106.326 87.066 106.322 86.5657 105.609C86.2296 105.171 86.3117 104.54 86.7494 104.204C86.8902 104.094 87.0582 104.023 87.238 104.004Z" fill="white"/>
<path fill-rule="evenodd" clip-rule="evenodd" d="M83.0325 119.138C83.5562 119.247 83.8924 119.76 83.7829 120.285C83.7516 120.434 83.6891 120.571 83.5953 120.689C83.0599 121.421 81.731 121.029 81.6841 120.262C81.688 119.623 82.2078 119.11 82.8449 119.118C82.9074 119.118 82.97 119.126 83.0325 119.138Z" fill="white"/>
<path fill-rule="evenodd" clip-rule="evenodd" d="M83.0325 104.078C83.5562 104.187 83.8924 104.7 83.7829 105.225C83.7516 105.374 83.6891 105.511 83.5953 105.629C83.0599 106.361 81.731 105.969 81.6841 105.202C81.688 104.563 82.2078 104.05 82.8449 104.058C82.9074 104.058 82.97 104.066 83.0325 104.078Z" fill="white"/>
<path fill-rule="evenodd" clip-rule="evenodd" d="M79.3272 119.71C79.6595 120.172 79.5539 120.814 79.0927 121.143C79.0849 121.151 79.0732 121.159 79.0615 121.163C78.526 121.429 77.8772 121.214 77.6075 120.673C77.5333 120.524 77.4942 120.364 77.4942 120.199C77.5294 119.647 78.0101 119.228 78.5612 119.263C78.87 119.287 79.1514 119.451 79.3272 119.71Z" fill="white"/>
<path fill-rule="evenodd" clip-rule="evenodd" d="M79.3272 104.65C79.6595 105.112 79.5539 105.754 79.0927 106.083C79.0849 106.091 79.0732 106.099 79.0615 106.103C78.526 106.369 77.8772 106.153 77.6075 105.613C77.5333 105.464 77.4942 105.304 77.4942 105.139C77.5294 104.587 78.0101 104.168 78.5612 104.203C78.87 104.227 79.1514 104.391 79.3272 104.65Z" fill="white"/>
<path fill-rule="evenodd" clip-rule="evenodd" d="M74.3831 119.55C75.1022 119.816 75.3954 120.705 74.684 121.108C74.1916 121.402 73.574 121.382 73.0972 121.061C72.2373 120.38 72.9878 119.033 74.3831 119.55Z" fill="white"/>
<path fill-rule="evenodd" clip-rule="evenodd" d="M74.3831 104.489C75.1022 104.756 75.3954 105.645 74.684 106.048C74.1916 106.342 73.574 106.322 73.0972 106.001C72.2373 105.32 72.9878 103.973 74.3831 104.489Z" fill="white"/>
<path fill-rule="evenodd" clip-rule="evenodd" d="M69.0247 119.444C69.6109 119.315 70.1894 119.687 70.3184 120.274C70.3379 120.36 70.3457 120.451 70.3418 120.541C70.2871 121.524 69.1341 121.555 68.5361 121.065C68.1492 120.729 68.1062 120.145 68.4423 119.757C68.5908 119.589 68.798 119.475 69.0247 119.444Z" fill="white"/>
<path fill-rule="evenodd" clip-rule="evenodd" d="M69.0247 104.384C69.6109 104.255 70.1894 104.627 70.3184 105.214C70.3379 105.3 70.3457 105.39 70.3418 105.481C70.2871 106.464 69.1341 106.495 68.5361 106.005C68.1492 105.669 68.1062 105.085 68.4423 104.697C68.5908 104.529 68.798 104.415 69.0247 104.384Z" fill="white"/>
<path fill-rule="evenodd" clip-rule="evenodd" d="M65.0185 119.593C65.5735 119.659 65.9683 120.165 65.9018 120.721C65.8901 120.826 65.8588 120.928 65.8158 121.022C65.4875 121.774 64.1938 121.907 63.8968 120.952C63.7248 120.396 64.0336 119.804 64.5886 119.632C64.7254 119.589 64.87 119.573 65.0185 119.593Z" fill="white"/>
<path fill-rule="evenodd" clip-rule="evenodd" d="M65.0185 104.533C65.5735 104.599 65.9683 105.105 65.9018 105.661C65.8901 105.766 65.8588 105.868 65.8158 105.962C65.4875 106.714 64.1938 106.847 63.8968 105.892C63.7248 105.336 64.0336 104.744 64.5886 104.572C64.7254 104.529 64.87 104.513 65.0185 104.533Z" fill="white"/>
<path fill-rule="evenodd" clip-rule="evenodd" d="M99.3893 124.104C99.5651 121.798 99.2642 117.975 99.4401 116.577C99.4909 116.19 100.081 116.037 100.171 116.487C100.187 116.569 100.335 122.213 100.241 123.94C100.19 124.883 100.296 124.97 99.2525 125.028C91.5255 125.471 83.5562 125.428 75.8019 125.537C70.7873 125.608 65.8979 125.733 60.8834 125.628C60.1134 125.612 60.2893 125.322 60.2424 124.684C60.1017 122.757 60.2424 120.219 60.2072 117.035C60.2385 116.769 60.4573 116.562 60.7231 116.546C71.44 116.119 86.1827 116.131 98.2558 115.939C98.4864 115.951 98.6662 116.147 98.6584 116.381C98.6467 116.601 98.4708 116.777 98.2558 116.785C85.569 116.71 71.0766 117.521 61.0397 117.208C60.9576 119.839 61.0944 122.639 61.0006 124.911C68.8566 124.672 76.6344 124.692 84.502 124.523C89.4931 124.41 94.4216 124.12 99.3893 124.104Z" fill="black"/>
<path fill-rule="evenodd" clip-rule="evenodd" d="M99.2329 109.066C99.5104 106.669 99.104 104.061 99.2251 101.735C86.5383 101.841 73.6405 101.864 60.9498 101.88C60.8638 103.936 60.9303 107.625 60.8365 109.544C60.8169 109.99 60.1486 110.037 60.1329 109.575C60.0509 107.296 60.0001 104.417 60.0978 102.107C60.1369 101.144 60.258 101.14 61.1452 101.12C72.8627 100.858 87.0894 100.627 98.7835 100.924C99.7449 100.948 99.8974 100.983 100.03 102.021C100.202 103.344 100.327 108.51 100.065 109.563C100.026 109.771 99.8465 109.927 99.6316 109.931C86.9761 110.221 74.7192 110.425 62.4936 110.268C62.0442 110.264 62.095 109.583 62.5327 109.579C74.7739 109.45 87.1129 109.14 99.2329 109.066Z" fill="black"/>
</svg>
