<svg width="150" height="150" viewBox="0 0 150 150" fill="none" xmlns="http://www.w3.org/2000/svg">
<path fill-rule="evenodd" clip-rule="evenodd" d="M39.8609 61.3766C39.6696 60.9327 38.9144 61.2051 39.0704 61.6541C41.3763 68.1566 42.9874 74.886 43.8836 81.7265C43.9641 82.2764 44.7848 82.0897 44.7193 81.5499C44.1152 76.5962 41.9351 66.1791 39.8609 61.3766ZM56.153 119.995C54.6326 119.571 53.6508 119.284 52.1052 118.951C51.8685 118.89 51.6319 119.026 51.5664 119.263C51.506 119.49 51.6369 119.722 51.8585 119.793C53.1926 120.257 55.2569 120.519 55.3827 120.817C55.4331 120.938 52.2713 131.915 51.7326 132.763C51.2744 133.479 50.5394 132.884 49.9302 132.621C49.2505 132.334 48.7521 132.218 48.0724 131.935C47.433 131.668 47.1259 132.717 47.7703 132.985C48.5356 133.297 49.1297 133.429 49.8949 133.736C51.1788 134.251 52.1102 134.715 52.6741 133.035C54.0435 128.979 55.2317 124.717 56.4903 120.61C56.5659 120.353 56.4148 120.076 56.153 119.995ZM27.9338 108.377C35.4555 112.266 43.5865 114.774 51.6621 117.432C49.754 120.555 45.9075 129.398 45.9075 137C36.9408 134.69 6.17398 121.12 3.25892 113.578C0.343852 106.036 2.77559 74.2756 7.63403 67.5815C10.9619 62.9959 20.3264 58.6374 26.9419 56.6902C32.2032 62.3603 41.7539 80.9698 45.2379 89.4195C45.1825 96.5576 45.248 103.711 45.7917 110.829C45.832 111.353 46.5821 111.242 46.5872 110.738C46.6073 103.095 46.3807 95.4478 46.4059 87.7851C46.4412 77.4033 48.2486 67.5058 47.1813 56.9525C51.7225 57.7596 56.1782 58.9754 60.503 60.5846C60.503 64.6304 59.9743 105.103 59.9038 116.696C50.5243 116.186 38.0786 111.767 29.565 107.691C25.6229 105.804 22.7279 104.326 23.0955 99.5945C23.5587 93.5712 23.5033 87.4925 24.3692 81.5146C24.3944 81.2876 24.2283 81.0808 24.0017 81.0556C23.7852 81.0304 23.5889 81.1817 23.5486 81.3936C22.4007 86.9779 22.1137 94.7516 21.9627 100.497C21.8469 104.377 24.5555 106.632 27.9338 108.377ZM47.2215 91.8712C47.1259 92.0982 47.2366 92.3555 47.4632 92.4513C47.6747 92.5371 47.9163 92.4513 48.022 92.2495C49.91 88.6174 51.5463 84.8542 52.9057 80.99C54.0737 77.7766 55.0454 76.2027 52.3468 73.5038C51.1838 72.3436 50.922 72.0358 52.2914 71.6777C53.1222 71.4809 53.9126 71.1429 54.6326 70.6889C55.4985 70.013 55.277 69.0091 54.8944 68.1263C53.7465 65.382 52.372 62.7387 50.776 60.2264C50.479 59.7724 49.8547 60.2365 50.0963 60.6956C50.9724 62.3502 53.9579 67.5462 54.2348 69.1554C54.4211 70.245 52.08 70.6688 51.1838 71.0017C49.3009 71.6928 50.2876 72.8884 51.3097 73.8721C53.9428 76.4095 53.248 77.146 52.1102 80.309C50.6803 84.2942 48.9887 88.0323 47.2215 91.8712ZM25.2201 61.2555C25.3762 60.7814 26.1263 61.0437 26.0156 61.5179C25.6229 63.1876 24.8526 66.4363 25.0237 68.1263C25.1093 68.9637 25.7286 69.3017 26.4183 69.5489C27.6015 69.9776 28.8199 70.3156 30.0181 70.7041C32.8627 71.6272 32.1377 72.9237 31.9615 75.4056C31.6796 79.3051 31.3976 79.3152 34.4184 81.8728C37.3184 84.3245 40.2989 87.1898 43.3046 89.4397C43.7879 89.8029 43.1888 90.5041 42.7206 90.1611C39.5135 87.8153 35.4455 84.2135 32.5203 81.5298C30.3705 79.5573 30.8589 77.706 31.0452 75.0878C31.1711 73.3626 31.8054 72.3335 29.857 71.6878C28.6487 71.2892 27.4253 70.9361 26.227 70.5174C25.3862 70.2248 24.5303 69.7708 24.2283 68.8275C23.7147 67.2687 24.7217 62.7841 25.2201 61.2555Z" fill="white"/>
<path fill-rule="evenodd" clip-rule="evenodd" d="M31.4579 30.0394C31.8506 30.337 32.2736 29.8477 32.4347 29.5299C33.6984 27.1136 34.5492 23.5319 34.0004 20.833C33.9098 20.3891 33.1546 20.3538 33.1597 20.8583C33.21 23.9657 33.0892 26.1551 31.614 28.9851C30.0835 27.6281 27.4 27.618 26.9922 29.8679C26.6297 31.8706 27.6014 35.1345 29.0463 36.5722C29.5951 37.1826 30.456 37.3995 31.2263 37.1271C31.8204 42.2322 32.6864 47.3172 32.8928 52.7704C32.9432 53.0075 33.1748 53.1588 33.4114 53.1083C33.5926 53.068 33.7336 52.9217 33.7537 52.7351C34.0911 47.9074 32.7116 41.1274 31.9765 36.3098C31.901 35.8104 31.4378 35.6086 31.1005 35.8861C30.3 36.5419 29.6304 35.6187 29.2326 34.9529C28.568 33.833 27.697 31.2905 28.12 29.9789C28.6436 28.3747 30.5769 29.3786 31.4579 30.0394Z" fill="white"/>
<path fill-rule="evenodd" clip-rule="evenodd" d="M44.7445 54.8439C44.82 55.7922 44.966 61.5633 44.1705 61.7953C43.2693 62.0576 40.324 59.2982 38.6727 58.9502C37.8923 59.5656 33.8948 62.6428 32.908 61.9113C31.6997 61.0235 31.3724 55.4038 31.4429 54.1376C31.4832 53.8501 31.745 53.6483 32.032 53.6836C32.0722 53.6886 32.1125 53.6987 32.1528 53.7139C34.3982 54.3697 36.5329 55.3483 38.4964 56.6246C39.7954 56.0495 41.0339 55.3382 42.1919 54.5059C43.1384 53.8198 44.5682 52.6848 44.7445 54.8439Z" fill="#19C9D1"/>
<path fill-rule="evenodd" clip-rule="evenodd" d="M41.5978 47.3879C45.3637 48.3716 49.0289 47.4586 50.5494 43.4935C52.9358 37.2634 50.6551 24.5309 47.6545 18.3361C47.4078 17.8266 46.708 18.2352 46.8993 18.7397C49.5828 25.6457 51.6067 34.045 50.192 41.4C49.2505 46.2882 45.9377 47.7057 41.4266 46.4093C40.3341 46.0965 39.2617 45.6677 38.2296 45.2793C37.7362 45.0926 37.5348 45.8392 37.993 46.0461C38.8791 46.4547 39.7853 46.8179 40.7067 47.1256C40.9231 48.7954 40.7721 52.261 40.8275 53.159C40.8577 53.6584 41.5978 53.6331 41.6834 53.1539C41.8546 52.1803 41.7086 48.3363 41.5978 47.3879Z" fill="white"/>
<path fill-rule="evenodd" clip-rule="evenodd" d="M40.6009 12.0051C40.1126 12.0253 40.1377 12.792 40.606 12.8526C42.8665 13.1401 46.3052 13.7858 45.983 16.8731C45.9779 17.0951 46.1541 17.2817 46.3757 17.2868C46.567 17.2918 46.7331 17.1607 46.7784 16.974C47.4934 13.6042 43.4052 11.8941 40.6009 12.0051Z" fill="white"/>
<path fill-rule="evenodd" clip-rule="evenodd" d="M43.2138 17.4281C43.3246 17.6249 43.2541 17.872 43.0577 17.978C42.8614 18.089 42.6147 18.0183 42.509 17.8216C40.7217 15.1581 37.6606 13.6497 34.4636 13.8565C32.0923 13.9473 26.4333 15.3951 25.9751 18.1798C25.8845 18.7296 24.9481 18.5985 25.0135 18.0486C25.4163 14.7343 31.327 13.0847 34.091 12.893C37.575 12.6509 41.5826 14.1239 43.2138 17.4281Z" fill="white"/>
<path fill-rule="evenodd" clip-rule="evenodd" d="M37.132 18.8961C37.5298 19.1534 37.1622 19.8445 36.7393 19.6376C34.1616 18.3513 30.9545 17.8115 28.2912 19.2089C25.1244 20.8685 25.8292 24.2989 27.5209 26.7909C27.6719 26.9977 27.6266 27.2853 27.4252 27.4416C27.2339 27.5829 26.962 27.5577 26.8009 27.3761C24.6612 24.8386 24.3339 20.5659 27.4151 18.6186C30.2345 16.8228 34.3831 17.1305 37.132 18.8961Z" fill="white"/>
<path fill-rule="evenodd" clip-rule="evenodd" d="M48.3997 28.9548C48.8377 29.2676 48.6112 29.6005 48.2184 29.6358C47.7301 29.6005 47.2417 29.6358 46.7634 29.7317C46.3556 29.8326 46.0485 29.4088 46.5469 29.0355C47.1058 28.6824 47.8106 28.6572 48.3997 28.9548Z" fill="white"/>
<path fill-rule="evenodd" clip-rule="evenodd" d="M41.915 29.3231C42.7659 29.54 42.8011 30.2614 41.8647 30.1958C41.19 30.1807 40.5204 30.2917 39.8911 30.5288C39.5034 30.6499 39.302 30.1858 39.6494 29.873C40.2888 29.3736 41.1145 29.1718 41.915 29.3231Z" fill="white"/>
<path fill-rule="evenodd" clip-rule="evenodd" d="M48.5455 25.9585C48.8023 26.3772 48.47 26.7202 48.0974 26.4579C47.0754 25.7264 46.3453 25.9484 45.6153 26.7202C45.4441 26.8867 45.1672 26.8816 45.0011 26.7051C44.8702 26.5688 44.845 26.357 44.9356 26.1905C45.57 24.8789 47.8155 24.773 48.5455 25.9585Z" fill="white"/>
<path fill-rule="evenodd" clip-rule="evenodd" d="M42.2121 26.3066C42.7508 26.6445 42.1919 27.4668 41.6583 27.1238C40.4902 26.3721 38.9345 26.7051 38.1793 27.8704C38.0384 28.057 37.7766 28.0923 37.5953 27.9511C37.4241 27.8199 37.3788 27.5828 37.4896 27.3962C38.4009 25.6962 40.6413 25.3178 42.2121 26.3066Z" fill="white"/>
<path fill-rule="evenodd" clip-rule="evenodd" d="M48.6059 39.3217C49.5424 40.0784 49.2906 40.3306 48.2283 40.0683C47.5688 39.8413 46.8891 39.6748 46.2044 39.5638C45.9778 39.5285 45.8268 39.3116 45.862 39.0846C45.8872 38.9232 46.008 38.792 46.1641 38.7516C46.582 38.6053 47.0301 38.5751 47.4631 38.6709C47.8759 38.8172 48.2636 39.0392 48.6059 39.3217Z" fill="white"/>
<path fill-rule="evenodd" clip-rule="evenodd" d="M44.7244 38.8574C45.0567 39.0087 45.1725 39.4274 44.8603 39.6292C44.2411 39.9117 43.5966 40.1437 42.9421 40.3253C42.3027 40.5675 41.7942 40.8197 41.1548 41.1022C40.3996 41.4351 39.7904 41.2283 40.6765 40.5624C41.2807 40.1034 41.8295 39.4577 42.5293 39.155C43.0932 38.9078 44.2411 38.6303 44.7244 38.8574Z" fill="white"/>
<path fill-rule="evenodd" clip-rule="evenodd" d="M45.1876 28.5564C46.3455 31.0988 46.9598 33.8582 46.9849 36.6529C46.9749 38.6203 45.832 38.3731 44.4626 37.8838C43.8735 37.7073 43.3197 37.4449 42.8162 37.0969C42.6501 36.9354 42.64 36.6681 42.8011 36.5016C42.9018 36.3957 43.0428 36.3503 43.1838 36.3755C43.6671 36.5218 44.1152 36.7791 44.5884 36.9607C45.4192 37.2785 46.0686 37.4046 46.0636 36.6883C46.0384 33.9743 45.4796 31.2905 44.4273 28.7935C44.2259 28.3092 44.9811 28.1024 45.1876 28.5564Z" fill="white"/>
<path fill-rule="evenodd" clip-rule="evenodd" d="M87.4788 121.816C88.0829 121.089 88.5109 121.871 88.1685 122.315C86.93 123.924 83.4208 124.03 81.5228 124.242C75.0331 124.964 73.6284 126.563 68.0047 129.246C64.264 131.083 60.1054 131.89 55.9518 131.587C54.3709 131.491 55.111 130.508 55.9971 130.553C59.5616 130.725 63.4232 130.255 68.5384 127.673C73.5932 125.125 75.4661 123.899 81.2157 123.253C82.9174 123.062 86.3963 123.122 87.4788 121.816Z" fill="white"/>
<path fill-rule="evenodd" clip-rule="evenodd" d="M93.5706 69.9574C93.6914 65.0086 98.0665 60.0195 103.811 60.0195C110.452 60.0195 114.097 65.6594 114.157 69.2663C107.496 69.8363 97.0545 70.0381 93.5706 69.9574Z" fill="#6039BB"/>
<path fill-rule="evenodd" clip-rule="evenodd" d="M103.005 48.8459C105.709 48.5987 107.864 49.9405 107.944 53.1438C108.025 56.3472 105.719 57.8101 103.897 57.8101C102.074 57.8101 99.0784 56.554 98.8771 53.7542C98.6757 50.9545 100.337 49.088 103.005 48.8459Z" fill="#6039BB"/>
<path fill-rule="evenodd" clip-rule="evenodd" d="M121.714 35.0236C121.468 34.9479 121.206 35.0892 121.135 35.3364C121.085 35.4978 121.13 35.6744 121.246 35.7954C121.986 36.7892 122.515 37.2634 122.666 38.6204C122.777 39.6041 123.587 39.816 123.804 38.6053C124.025 37.334 122.923 35.407 121.714 35.0236Z" fill="white"/>
<path fill-rule="evenodd" clip-rule="evenodd" d="M117.415 34.2014C119.434 33.934 121.206 37.5258 121.125 39.3217C121.06 40.719 120.174 41.0772 119.907 39.4024C119.705 38.1261 118.9 35.2708 117.415 35.0741C117.173 35.0338 117.007 34.8067 117.047 34.5646C117.077 34.383 117.223 34.2317 117.415 34.2014Z" fill="white"/>
<path fill-rule="evenodd" clip-rule="evenodd" d="M117.581 39.3972C117.601 36.7286 115.668 33.2377 112.602 34.0096C112.229 34.1004 112.133 34.7915 112.607 34.8571C115.391 35.2354 115.859 37.2633 116.252 39.6393C116.569 41.5966 117.571 41.3595 117.581 39.3972Z" fill="white"/>
<path fill-rule="evenodd" clip-rule="evenodd" d="M108.07 35.18C110.709 32.9957 114.414 36.5269 113.709 39.9017C113.553 40.6433 112.748 40.2095 112.692 39.5789C112.546 37.9091 111.434 34.8874 108.508 35.9115C108.116 36.0426 107.738 35.4575 108.07 35.18Z" fill="white"/>
<path fill-rule="evenodd" clip-rule="evenodd" d="M147.21 78.1952C147.089 68.4591 147.603 58.2842 147.21 48.6742C146.943 42.1162 146.772 38.2672 139.442 37.3592C135.066 36.8194 129.438 37.2482 125.188 37.2734C124.947 37.2835 124.755 37.4903 124.765 37.7325C124.776 37.9595 124.957 38.1411 125.183 38.1562C129.629 38.3782 134.759 38.242 138.817 38.4841C145.282 38.8726 146.203 42.2625 146.213 49.3401C146.228 59.0358 145.961 68.7265 146.052 78.4373C146.143 88.4609 146.938 99.5944 146.646 109.487C146.359 119.258 141.788 118.87 134.971 119.036C114.439 119.551 92.6696 119.172 72.1886 119.324C71.7203 119.329 71.7203 120.151 72.1886 120.156C91.8137 120.358 114.238 120.888 133.994 120.338C143.137 120.08 147.19 120.449 147.854 109.795C148.398 100.992 147.27 83.5425 147.21 78.1952Z" fill="#6039BB"/>
<path fill-rule="evenodd" clip-rule="evenodd" d="M109.349 37.223C97.8801 37.0969 85.6661 36.7438 74.2374 37.1474C68.6691 37.3441 62.0787 39.3973 62.0787 46.0662C62.0686 63.9695 61.973 81.8677 61.9981 99.771C62.0032 103.928 61.6759 109.209 62.1442 113.18C62.3606 115.021 62.9598 116.302 64.3141 117.356C64.7068 117.664 65.4721 117.15 64.9535 116.635C63.6999 115.384 63.3424 114.093 63.2316 112.493C62.9296 108.069 63.2216 102.899 63.2216 98.3736C63.2316 80.9496 63.1712 63.5256 63.1712 46.1066C63.1712 39.5738 70.1291 38.3581 75.2745 38.2975C86.5924 38.1563 97.9305 38.4438 109.253 38.3833C109.994 38.3782 110.099 37.2281 109.349 37.223Z" fill="#6039BB"/>
<path fill-rule="evenodd" clip-rule="evenodd" d="M113.724 98.8729C114.515 98.8073 115.215 99.3975 115.28 100.19C115.29 100.285 115.285 100.376 115.275 100.472C115.119 101.864 113.503 101.859 112.858 100.941C112.425 100.376 112.531 99.564 113.095 99.1302C113.276 98.9889 113.493 98.8981 113.724 98.8729Z" fill="#6039BB"/>
<path fill-rule="evenodd" clip-rule="evenodd" d="M108.307 98.9689C108.982 99.1102 109.415 99.771 109.274 100.447C109.233 100.639 109.153 100.815 109.032 100.967C108.342 101.91 106.63 101.405 106.57 100.417C106.575 99.5945 107.245 98.9336 108.065 98.9437C108.146 98.9437 108.226 98.9538 108.307 98.9689Z" fill="#6039BB"/>
<path fill-rule="evenodd" clip-rule="evenodd" d="M103.534 99.7054C103.962 100.301 103.826 101.128 103.232 101.552C103.222 101.562 103.207 101.572 103.192 101.577C102.502 101.92 101.666 101.643 101.319 100.946C101.223 100.755 101.173 100.548 101.173 100.336C101.218 99.6247 101.837 99.085 102.547 99.1304C102.945 99.1606 103.308 99.3725 103.534 99.7054Z" fill="#6039BB"/>
<path fill-rule="evenodd" clip-rule="evenodd" d="M97.1651 99.4986C98.0915 99.8416 98.4691 100.987 97.5528 101.506C96.9184 101.885 96.123 101.859 95.5087 101.446C94.4011 100.568 95.3678 98.8327 97.1651 99.4986Z" fill="#6039BB"/>
<path fill-rule="evenodd" clip-rule="evenodd" d="M90.2628 99.3624C91.018 99.1959 91.7632 99.6751 91.9293 100.432C91.9545 100.543 91.9646 100.659 91.9595 100.775C91.889 102.041 90.4038 102.081 89.6335 101.451C89.1351 101.017 89.0797 100.265 89.5127 99.7659C89.704 99.549 89.9708 99.4027 90.2628 99.3624Z" fill="#6039BB"/>
<path fill-rule="evenodd" clip-rule="evenodd" d="M85.1024 99.5539C85.8173 99.6397 86.3258 100.29 86.2403 101.007C86.2252 101.143 86.1849 101.274 86.1295 101.395C85.7066 102.364 84.0401 102.535 83.6575 101.304C83.436 100.588 83.8337 99.8264 84.5486 99.6044C84.7248 99.5489 84.9111 99.5287 85.1024 99.5539Z" fill="#6039BB"/>
<path fill-rule="evenodd" clip-rule="evenodd" d="M129.377 105.365C129.604 102.394 129.216 97.4706 129.443 95.6697C129.508 95.1703 130.268 94.9735 130.384 95.5537C130.404 95.6596 130.596 102.929 130.475 105.154C130.409 106.369 130.545 106.48 129.201 106.556C119.247 107.126 108.982 107.07 98.993 107.212C92.5335 107.303 86.2352 107.464 79.7757 107.328C78.7839 107.308 79.0104 106.934 78.95 106.112C78.7688 103.63 78.95 100.361 78.9047 96.2599C78.945 95.9169 79.2269 95.6495 79.5693 95.6293C93.3743 95.0795 112.365 95.0946 127.917 94.8474C128.214 94.8625 128.446 95.1148 128.436 95.4175C128.421 95.7 128.194 95.927 127.917 95.937C111.575 95.8412 92.9061 96.8854 79.9771 96.4819C79.8714 99.8718 80.0476 103.479 79.9267 106.405C90.0464 106.097 100.065 106.122 110.2 105.905C116.629 105.759 122.978 105.386 129.377 105.365Z" fill="#6039BB"/>
<path fill-rule="evenodd" clip-rule="evenodd" d="M129.176 85.9942C129.533 82.9069 129.01 79.5472 129.166 76.5508C112.823 76.687 96.2088 76.7172 79.8613 76.7374C79.7505 79.3858 79.8361 84.1378 79.7153 86.6097C79.6901 87.1848 78.8292 87.2453 78.8091 86.65C78.7033 83.7141 78.6379 80.0063 78.7638 77.03C78.8141 75.789 78.9702 75.784 80.113 75.7588C95.2069 75.4208 113.533 75.1231 128.597 75.5065C129.835 75.5368 130.032 75.5822 130.203 76.919C130.424 78.6241 130.585 85.2779 130.248 86.6349C130.198 86.9023 129.966 87.104 129.689 87.1091C113.387 87.4824 97.5984 87.7447 81.85 87.5429C81.271 87.5379 81.3365 86.6601 81.9003 86.6551C97.6689 86.4886 113.563 86.0901 129.176 85.9942Z" fill="#6039BB"/>
<path fill-rule="evenodd" clip-rule="evenodd" d="M71.4635 114.325C73.6586 113.785 73.9204 115.334 72.4805 116.736C71.2319 117.942 70.23 119.384 69.5302 120.978C69.2684 121.569 68.3218 121.221 68.5836 120.625C69.3842 118.845 70.5169 117.235 71.9115 115.873C72.5912 115.192 72.5358 115.142 71.6699 115.364C66.9222 116.575 63.5792 123.153 58.3583 122.764C56.5609 122.633 56.873 121.836 58.3583 121.806C63.3677 121.695 66.6 115.525 71.4635 114.325Z" fill="white"/>
</svg>
