<svg width="150" height="150" viewBox="0 0 150 150" fill="none" xmlns="http://www.w3.org/2000/svg">
<path fill-rule="evenodd" clip-rule="evenodd" d="M39.8609 61.3765C39.6696 60.9326 38.9144 61.205 39.0704 61.6539C41.3763 68.1564 42.9874 74.8859 43.8836 81.7264C43.9641 82.2762 44.7848 82.0896 44.7193 81.5498C44.1152 76.596 41.9351 66.1789 39.8609 61.3765ZM56.153 119.995C54.6326 119.571 53.6508 119.283 52.1052 118.95C51.8685 118.89 51.6319 119.026 51.5664 119.263C51.506 119.49 51.6369 119.722 51.8585 119.793C53.1926 120.257 55.2569 120.519 55.3827 120.817C55.4331 120.938 52.2713 131.915 51.7326 132.763C51.2744 133.479 50.5394 132.884 49.9302 132.621C49.2505 132.334 48.7521 132.218 48.0724 131.935C47.433 131.668 47.1259 132.717 47.7703 132.985C48.5356 133.297 49.1297 133.428 49.8949 133.736C51.1788 134.251 52.1102 134.715 52.6741 133.035C54.0435 128.979 55.2317 124.716 56.4903 120.61C56.5659 120.353 56.4148 120.075 56.153 119.995ZM27.9338 108.377C35.4555 112.266 43.5865 114.774 51.6621 117.432C49.754 120.555 45.9075 129.398 45.9075 137C36.9408 134.69 6.17398 121.12 3.25892 113.578C0.343852 106.036 2.77559 74.2755 7.63403 67.5813C10.9619 62.9958 20.3264 58.6373 26.9419 56.6901C32.2032 62.3602 41.7539 80.9697 45.2379 89.4194C45.1825 96.5575 45.248 103.711 45.7917 110.829C45.832 111.353 46.5821 111.242 46.5872 110.738C46.6073 103.095 46.3807 95.4477 46.4059 87.7849C46.4412 77.4032 48.2486 67.5057 47.1813 56.9524C51.7225 57.7595 56.1782 58.9753 60.503 60.5845C60.503 64.6303 59.9743 105.103 59.9038 116.696C50.5243 116.186 38.0786 111.767 29.565 107.691C25.6229 105.804 22.7279 104.326 23.0955 99.5943C23.5587 93.5711 23.5033 87.4924 24.3692 81.5145C24.3944 81.2875 24.2283 81.0807 24.0017 81.0555C23.7852 81.0302 23.5889 81.1816 23.5486 81.3934C22.4007 86.9778 22.1137 94.7515 21.9627 100.497C21.8469 104.377 24.5555 106.632 27.9338 108.377ZM47.2215 91.8711C47.1259 92.0981 47.2366 92.3553 47.4632 92.4512C47.6747 92.5369 47.9163 92.4512 48.022 92.2494C49.91 88.6173 51.5463 84.854 52.9057 80.9899C54.0737 77.7765 55.0454 76.2026 52.3468 73.5037C51.1838 72.3434 50.922 72.0357 52.2914 71.6776C53.1222 71.4808 53.9126 71.1428 54.6326 70.6888C55.4985 70.0128 55.277 69.009 54.8944 68.1262C53.7465 65.3819 52.372 62.7385 50.776 60.2263C50.479 59.7723 49.8547 60.2364 50.0963 60.6955C50.9724 62.3501 53.9579 67.546 54.2348 69.1553C54.4211 70.2449 52.08 70.6686 51.1838 71.0016C49.3009 71.6927 50.2876 72.8883 51.3097 73.872C53.9428 76.4094 53.248 77.1459 52.1102 80.3089C50.6803 84.2941 48.9887 88.0321 47.2215 91.8711ZM25.2201 61.2554C25.3762 60.7812 26.1263 61.0436 26.0156 61.5177C25.6229 63.1875 24.8526 66.4362 25.0237 68.1262C25.1093 68.9636 25.7286 69.3016 26.4183 69.5487C27.6015 69.9775 28.8199 70.3155 30.0181 70.7039C32.8627 71.6271 32.1377 72.9236 31.9615 75.4055C31.6796 79.305 31.3976 79.3151 34.4184 81.8727C37.3184 84.3244 40.2989 87.1897 43.3046 89.4396C43.7879 89.8028 43.1888 90.504 42.7206 90.1609C39.5135 87.8152 35.4455 84.2134 32.5203 81.5296C30.3705 79.5572 30.8589 77.7058 31.0452 75.0877C31.1711 73.3624 31.8054 72.3334 29.857 71.6876C28.6487 71.2891 27.4253 70.936 26.227 70.5173C25.3862 70.2247 24.5303 69.7707 24.2283 68.8274C23.7147 67.2686 24.7217 62.7839 25.2201 61.2554Z" fill="#6039BB"/>
<path fill-rule="evenodd" clip-rule="evenodd" d="M31.4581 30.0395C31.8508 30.3372 32.2737 29.8478 32.4348 29.53C33.6985 27.1137 34.5493 23.532 34.0006 20.8332C33.9099 20.3892 33.1547 20.3539 33.1598 20.8584C33.2101 23.9658 33.0893 26.1552 31.6141 28.9852C30.0836 27.6282 27.4001 27.6181 26.9923 29.868C26.6298 31.8707 27.6015 35.1346 29.0465 36.5723C29.5952 37.1827 30.4562 37.3996 31.2265 37.1272C31.8206 42.2323 32.6865 47.3173 32.8929 52.7705C32.9433 53.0076 33.1749 53.1589 33.4115 53.1085C33.5928 53.0681 33.7337 52.9218 33.7539 52.7352C34.0912 47.9075 32.7117 41.1276 31.9766 36.31C31.9011 35.8106 31.4379 35.6088 31.1006 35.8862C30.3001 36.542 29.6305 35.6189 29.2327 34.953C28.5682 33.8331 27.6972 31.2906 28.1201 29.979C28.6437 28.3748 30.577 29.3787 31.4581 30.0395Z" fill="black"/>
<path fill-rule="evenodd" clip-rule="evenodd" d="M44.7445 54.8437C44.82 55.7921 44.966 61.5631 44.1705 61.7952C43.2693 62.0575 40.324 59.2981 38.6727 58.95C37.8923 59.5655 33.8948 62.6427 32.908 61.9112C31.6997 61.0234 31.3724 55.4037 31.4429 54.1375C31.4832 53.8499 31.745 53.6482 32.032 53.6835C32.0722 53.6885 32.1125 53.6986 32.1528 53.7137C34.3982 54.3695 36.5329 55.3482 38.4964 56.6245C39.7954 56.0494 41.0339 55.3381 42.1919 54.5057C43.1384 53.8197 44.5682 52.6846 44.7445 54.8437Z" fill="#19C9D1"/>
<path fill-rule="evenodd" clip-rule="evenodd" d="M41.5978 47.3878C45.3637 48.3715 49.0289 47.4584 50.5494 43.4934C52.9358 37.2633 50.6551 24.5308 47.6545 18.336C47.4078 17.8265 46.708 18.2351 46.8993 18.7396C49.5828 25.6456 51.6067 34.0449 50.192 41.3999C49.2505 46.2881 45.9377 47.7056 41.4266 46.4092C40.3341 46.0964 39.2617 45.6676 38.2296 45.2792C37.7362 45.0925 37.5348 45.8391 37.993 46.0459C38.8791 46.4546 39.7853 46.8178 40.7067 47.1255C40.9231 48.7953 40.7721 52.2609 40.8275 53.1588C40.8577 53.6582 41.5978 53.633 41.6834 53.1538C41.8546 52.1802 41.7086 48.3362 41.5978 47.3878Z" fill="black"/>
<path fill-rule="evenodd" clip-rule="evenodd" d="M40.6009 12.0051C40.1126 12.0253 40.1377 12.792 40.606 12.8526C42.8665 13.1401 46.3052 13.7858 45.983 16.8731C45.9779 17.0951 46.1541 17.2817 46.3757 17.2868C46.567 17.2918 46.7331 17.1607 46.7784 16.974C47.4934 13.6042 43.4052 11.8941 40.6009 12.0051Z" fill="black"/>
<path fill-rule="evenodd" clip-rule="evenodd" d="M43.2139 17.428C43.3247 17.6247 43.2542 17.8719 43.0579 17.9779C42.8615 18.0888 42.6148 18.0182 42.5091 17.8215C40.7218 15.1579 37.6607 13.6496 34.4637 13.8564C32.0924 13.9472 26.4334 15.395 25.9753 18.1796C25.8846 18.7295 24.9482 18.5983 25.0137 18.0485C25.4164 14.7342 31.3271 13.0846 34.0911 12.8929C37.5751 12.6508 41.5827 14.1238 43.2139 17.428Z" fill="black"/>
<path fill-rule="evenodd" clip-rule="evenodd" d="M37.132 18.896C37.5298 19.1532 37.1622 19.8444 36.7393 19.6375C34.1616 18.3512 30.9545 17.8114 28.2912 19.2087C25.1244 20.8684 25.8292 24.2987 27.5209 26.7908C27.6719 26.9976 27.6266 27.2851 27.4252 27.4415C27.2339 27.5828 26.962 27.5575 26.8009 27.3759C24.6612 24.8385 24.3339 20.5657 27.4151 18.6185C30.2345 16.8226 34.3831 17.1304 37.132 18.896Z" fill="black"/>
<path fill-rule="evenodd" clip-rule="evenodd" d="M48.3997 28.9549C48.8377 29.2677 48.6112 29.6006 48.2184 29.6359C47.7301 29.6006 47.2417 29.6359 46.7634 29.7318C46.3556 29.8327 46.0485 29.4089 46.5469 29.0356C47.1058 28.6825 47.8106 28.6573 48.3997 28.9549Z" fill="black"/>
<path fill-rule="evenodd" clip-rule="evenodd" d="M41.915 29.3231C42.7659 29.54 42.8011 30.2614 41.8647 30.1958C41.19 30.1807 40.5204 30.2917 39.8911 30.5288C39.5034 30.6499 39.302 30.1858 39.6494 29.873C40.2888 29.3736 41.1145 29.1718 41.915 29.3231Z" fill="black"/>
<path fill-rule="evenodd" clip-rule="evenodd" d="M48.5456 25.9585C48.8024 26.3772 48.4701 26.7202 48.0975 26.4579C47.0755 25.7264 46.3455 25.9484 45.6154 26.7202C45.4443 26.8867 45.1674 26.8816 45.0012 26.7051C44.8703 26.5688 44.8451 26.357 44.9358 26.1905C45.5701 24.8789 47.8156 24.773 48.5456 25.9585Z" fill="black"/>
<path fill-rule="evenodd" clip-rule="evenodd" d="M42.2121 26.3066C42.7508 26.6445 42.1919 27.4668 41.6583 27.1238C40.4902 26.3721 38.9345 26.7051 38.1793 27.8704C38.0384 28.057 37.7766 28.0923 37.5953 27.9511C37.4241 27.8199 37.3788 27.5828 37.4896 27.3962C38.4009 25.6962 40.6413 25.3178 42.2121 26.3066Z" fill="black"/>
<path fill-rule="evenodd" clip-rule="evenodd" d="M48.606 39.3216C49.5425 40.0782 49.2908 40.3305 48.2284 40.0682C47.5689 39.8411 46.8892 39.6747 46.2045 39.5637C45.978 39.5284 45.8269 39.3115 45.8622 39.0845C45.8873 38.923 46.0082 38.7919 46.1642 38.7515C46.5821 38.6052 47.0302 38.575 47.4632 38.6708C47.876 38.8171 48.2637 39.0391 48.606 39.3216Z" fill="black"/>
<path fill-rule="evenodd" clip-rule="evenodd" d="M44.7243 38.8575C45.0566 39.0088 45.1724 39.4275 44.8602 39.6293C44.241 39.9118 43.5965 40.1438 42.942 40.3255C42.3026 40.5676 41.7941 40.8198 41.1547 41.1023C40.3995 41.4353 39.7903 41.2284 40.6764 40.5625C41.2806 40.1035 41.8294 39.4578 42.5292 39.1551C43.0931 38.9079 44.241 38.6305 44.7243 38.8575Z" fill="black"/>
<path fill-rule="evenodd" clip-rule="evenodd" d="M45.1876 28.5564C46.3455 31.0988 46.9598 33.8582 46.9849 36.6529C46.9749 38.6203 45.832 38.3731 44.4626 37.8838C43.8735 37.7073 43.3197 37.4449 42.8162 37.0969C42.6501 36.9354 42.64 36.6681 42.8011 36.5016C42.9018 36.3957 43.0428 36.3503 43.1838 36.3755C43.6671 36.5218 44.1152 36.7791 44.5884 36.9607C45.4192 37.2785 46.0686 37.4046 46.0636 36.6883C46.0384 33.9743 45.4796 31.2905 44.4273 28.7935C44.2259 28.3092 44.9811 28.1024 45.1876 28.5564Z" fill="black"/>
<path fill-rule="evenodd" clip-rule="evenodd" d="M87.4787 121.816C88.0828 121.089 88.5108 121.871 88.1684 122.315C86.9299 123.924 83.4207 124.03 81.5227 124.242C75.033 124.964 73.6283 126.563 68.0046 129.246C64.2639 131.083 60.1052 131.89 55.9516 131.587C54.3708 131.491 55.1109 130.508 55.997 130.553C59.5615 130.725 63.4231 130.255 68.5383 127.673C73.5931 125.125 75.466 123.899 81.2155 123.253C82.9173 123.062 86.3962 123.122 87.4787 121.816Z" fill="black"/>
<path fill-rule="evenodd" clip-rule="evenodd" d="M93.5706 69.9574C93.6914 65.0086 98.0665 60.0195 103.811 60.0195C110.452 60.0195 114.097 65.6594 114.157 69.2663C107.496 69.8363 97.0545 70.0381 93.5706 69.9574Z" fill="black"/>
<path fill-rule="evenodd" clip-rule="evenodd" d="M103.005 48.8457C105.709 48.5985 107.864 49.9404 107.944 53.1437C108.025 56.347 105.719 57.81 103.897 57.81C102.074 57.81 99.0784 56.5539 98.8771 53.7541C98.6757 50.9544 100.337 49.0879 103.005 48.8457Z" fill="black"/>
<path fill-rule="evenodd" clip-rule="evenodd" d="M121.714 35.0236C121.468 34.9479 121.206 35.0892 121.135 35.3364C121.085 35.4978 121.13 35.6744 121.246 35.7954C121.986 36.7892 122.515 37.2634 122.666 38.6204C122.777 39.6041 123.587 39.816 123.804 38.6053C124.025 37.334 122.923 35.407 121.714 35.0236Z" fill="black"/>
<path fill-rule="evenodd" clip-rule="evenodd" d="M117.415 34.2013C119.434 33.9339 121.206 37.5257 121.125 39.3215C121.06 40.7189 120.174 41.0771 119.907 39.4022C119.705 38.126 118.9 35.2707 117.415 35.074C117.173 35.0336 117.007 34.8066 117.047 34.5645C117.077 34.3829 117.223 34.2315 117.415 34.2013Z" fill="black"/>
<path fill-rule="evenodd" clip-rule="evenodd" d="M117.581 39.3972C117.601 36.7286 115.668 33.2377 112.602 34.0096C112.229 34.1004 112.133 34.7915 112.607 34.8571C115.391 35.2354 115.859 37.2633 116.252 39.6393C116.569 41.5966 117.571 41.3595 117.581 39.3972Z" fill="black"/>
<path fill-rule="evenodd" clip-rule="evenodd" d="M108.07 35.18C110.709 32.9957 114.414 36.5269 113.709 39.9017C113.553 40.6433 112.748 40.2095 112.692 39.5789C112.546 37.9091 111.434 34.8874 108.508 35.9115C108.116 36.0426 107.738 35.4575 108.07 35.18Z" fill="black"/>
<path fill-rule="evenodd" clip-rule="evenodd" d="M147.21 78.1952C147.089 68.4591 147.603 58.2842 147.21 48.6742C146.943 42.1162 146.772 38.2672 139.441 37.3592C135.066 36.8194 129.438 37.2482 125.188 37.2734C124.947 37.2835 124.755 37.4903 124.765 37.7325C124.775 37.9595 124.957 38.1411 125.183 38.1562C129.629 38.3782 134.759 38.242 138.817 38.4841C145.282 38.8726 146.203 42.2625 146.213 49.3401C146.228 59.0358 145.961 68.7265 146.052 78.4373C146.143 88.4609 146.938 99.5944 146.646 109.487C146.359 119.258 141.788 118.87 134.971 119.036C114.439 119.551 92.6694 119.172 72.1884 119.324C71.7202 119.329 71.7202 120.151 72.1884 120.156C91.8135 120.358 114.238 120.888 133.994 120.338C143.137 120.08 147.19 120.449 147.854 109.795C148.398 100.992 147.27 83.5425 147.21 78.1952Z" fill="black"/>
<path fill-rule="evenodd" clip-rule="evenodd" d="M109.349 37.223C97.8803 37.0969 85.6662 36.7438 74.2375 37.1474C68.6692 37.3441 62.0788 39.3973 62.0788 46.0662C62.0688 63.9695 61.9731 81.8677 61.9983 99.771C62.0033 103.928 61.6761 109.209 62.1443 113.18C62.3608 115.021 62.9599 116.302 64.3142 117.356C64.7069 117.664 65.4722 117.15 64.9536 116.635C63.7 115.384 63.3425 114.093 63.2318 112.493C62.9297 108.069 63.2217 102.899 63.2217 98.3736C63.2318 80.9496 63.1713 63.5256 63.1713 46.1066C63.1713 39.5738 70.1292 38.3581 75.2747 38.2975C86.5926 38.1563 97.9306 38.4438 109.254 38.3833C109.994 38.3782 110.099 37.2281 109.349 37.223Z" fill="black"/>
<path fill-rule="evenodd" clip-rule="evenodd" d="M113.724 98.873C114.515 98.8074 115.215 99.3977 115.28 100.19C115.29 100.286 115.285 100.376 115.275 100.472C115.119 101.864 113.503 101.859 112.858 100.941C112.425 100.376 112.531 99.5641 113.095 99.1303C113.276 98.989 113.493 98.8982 113.724 98.873Z" fill="black"/>
<path fill-rule="evenodd" clip-rule="evenodd" d="M108.307 98.9688C108.982 99.1101 109.415 99.7709 109.274 100.447C109.233 100.639 109.153 100.815 109.032 100.966C108.342 101.91 106.63 101.405 106.57 100.417C106.575 99.5943 107.245 98.9335 108.065 98.9436C108.146 98.9436 108.226 98.9537 108.307 98.9688Z" fill="black"/>
<path fill-rule="evenodd" clip-rule="evenodd" d="M103.534 99.7053C103.962 100.301 103.826 101.128 103.232 101.552C103.222 101.562 103.207 101.572 103.192 101.577C102.502 101.92 101.666 101.642 101.319 100.946C101.223 100.755 101.173 100.548 101.173 100.336C101.218 99.6246 101.837 99.0848 102.547 99.1302C102.945 99.1605 103.308 99.3724 103.534 99.7053Z" fill="black"/>
<path fill-rule="evenodd" clip-rule="evenodd" d="M97.1653 99.4986C98.0916 99.8416 98.4692 100.987 97.5529 101.506C96.9186 101.885 96.1231 101.859 95.5089 101.446C94.4012 100.568 95.3679 98.8327 97.1653 99.4986Z" fill="black"/>
<path fill-rule="evenodd" clip-rule="evenodd" d="M90.2628 99.3624C91.018 99.1959 91.7632 99.6751 91.9293 100.432C91.9545 100.543 91.9646 100.659 91.9595 100.775C91.889 102.041 90.4038 102.081 89.6335 101.451C89.1351 101.017 89.0797 100.265 89.5127 99.7659C89.704 99.549 89.9708 99.4027 90.2628 99.3624Z" fill="black"/>
<path fill-rule="evenodd" clip-rule="evenodd" d="M85.1023 99.5539C85.8172 99.6397 86.3257 100.29 86.2401 101.007C86.225 101.143 86.1848 101.274 86.1294 101.395C85.7065 102.364 84.04 102.535 83.6574 101.304C83.4358 100.588 83.8336 99.8264 84.5485 99.6044C84.7247 99.5489 84.911 99.5287 85.1023 99.5539Z" fill="black"/>
<path fill-rule="evenodd" clip-rule="evenodd" d="M129.377 105.365C129.604 102.394 129.216 97.4706 129.442 95.6697C129.508 95.1703 130.268 94.9735 130.384 95.5537C130.404 95.6596 130.595 102.929 130.475 105.154C130.409 106.369 130.545 106.48 129.201 106.556C119.247 107.126 108.982 107.07 98.9929 107.212C92.5334 107.303 86.2351 107.464 79.7756 107.328C78.7838 107.308 79.0103 106.934 78.9499 106.112C78.7687 103.63 78.9499 100.361 78.9046 96.2599C78.9449 95.9169 79.2268 95.6495 79.5692 95.6293C93.3742 95.0795 112.365 95.0946 127.917 94.8474C128.214 94.8625 128.446 95.1148 128.436 95.4175C128.42 95.7 128.194 95.927 127.917 95.937C111.574 95.8412 92.906 96.8854 79.977 96.4819C79.8712 99.8718 80.0475 103.479 79.9266 106.405C90.0463 106.097 100.065 106.122 110.2 105.905C116.629 105.759 122.978 105.386 129.377 105.365Z" fill="black"/>
<path fill-rule="evenodd" clip-rule="evenodd" d="M129.176 85.9941C129.533 82.9068 129.009 79.5471 129.166 76.5506C112.823 76.6868 96.2087 76.7171 79.8612 76.7373C79.7504 79.3857 79.836 84.1377 79.7152 86.6096C79.69 87.1846 78.8291 87.2452 78.8089 86.6499C78.7032 83.714 78.6378 80.0062 78.7636 77.0299C78.814 75.7889 78.97 75.7839 80.1129 75.7586C95.2068 75.4206 113.533 75.123 128.597 75.5064C129.835 75.5367 130.032 75.5821 130.203 76.9189C130.424 78.624 130.585 85.2778 130.248 86.6348C130.198 86.9021 129.966 87.1039 129.689 87.109C113.387 87.4823 97.5983 87.7446 81.8499 87.5428C81.2709 87.5378 81.3363 86.66 81.9002 86.655C97.6688 86.4885 113.563 86.09 129.176 85.9941Z" fill="black"/>
<path fill-rule="evenodd" clip-rule="evenodd" d="M71.4633 114.325C73.6585 113.785 73.9203 115.334 72.4803 116.736C71.2318 117.942 70.2299 119.384 69.53 120.978C69.2682 121.569 68.3217 121.221 68.5835 120.625C69.384 118.845 70.5168 117.235 71.9114 115.873C72.5911 115.192 72.5357 115.142 71.6698 115.364C66.9221 116.575 63.5791 123.153 58.3581 122.764C56.5608 122.633 56.8729 121.836 58.3581 121.806C63.3676 121.695 66.5999 115.525 71.4633 114.325Z" fill="black"/>
</svg>
