<svg width="375" height="280" viewBox="0 0 375 280" fill="none" xmlns="http://www.w3.org/2000/svg">
<mask id="mask0_634_678" style="mask-type:alpha" maskUnits="userSpaceOnUse" x="0" y="0" width="375" height="250">
<rect width="375" height="250" fill="#D9D9D9"/>
</mask>
<g mask="url(#mask0_634_678)">
<rect width="375" height="250" fill="url(#paint0_linear_634_678)"/>
</g>
<g opacity="0.2" clip-path="url(#clip0_634_678)">
<path fill-rule="evenodd" clip-rule="evenodd" d="M104.082 142.496C100.298 148.497 96.1348 154.227 91.7717 159.814C87.4788 165.335 83.4529 171.153 78.7695 176.354C77.6815 177.569 75.8927 175.864 76.6785 174.58C80.3707 168.548 84.8965 163.009 88.9687 157.249C93.0121 151.512 97.3569 145.996 101.971 140.709C103.055 139.478 104.883 141.208 104.082 142.496Z" fill="#22272C"/>
<path fill-rule="evenodd" clip-rule="evenodd" d="M44.2708 82.626C35.2785 88.2889 26.0318 93.6357 16.5533 98.4589C6.9976 103.316 -3.16523 106.853 -12.4536 111.618C-13.0823 111.991 -13.2926 112.813 -12.9164 113.457C-12.6236 113.95 -12.0465 114.196 -11.498 114.077C-1.02836 112.111 9.23374 107.084 18.6905 102.316C28.3464 97.4542 37.538 91.6974 46.134 85.1416C47.5705 84.0538 45.7837 81.6566 44.2708 82.626Z" fill="#22272C"/>
<path fill-rule="evenodd" clip-rule="evenodd" d="M38.8765 14.9051C31.125 12.5019 23.2281 10.5184 15.2607 8.98892C7.02421 7.23094 -0.78291 6.2068 -8.97267 4.74246C-10.3626 4.48695 -10.9338 6.83854 -9.53904 7.19426C-1.56711 9.21214 5.89686 11.4583 14.0205 13.2408C22.0037 15.155 30.0931 16.6242 38.2334 17.6267C39.0049 17.6788 39.6885 17.0918 39.7571 16.3174C39.8122 15.7148 39.45 15.1352 38.8765 14.9051Z" fill="#22272C"/>
<path fill-rule="evenodd" clip-rule="evenodd" d="M94.3429 24.7492C94.4145 22.7422 91.4969 22.5311 90.9394 24.3227C88.7552 31.3108 89.2041 39.1455 90.4412 46.2524C91.6489 53.1462 93.8056 61.0662 98.6337 66.348C99.6485 67.4443 101.747 66.213 101.107 64.9003C98.0654 58.7417 95.9498 52.1798 94.8184 45.4044C93.6107 38.5106 94.0946 31.7056 94.3429 24.7492Z" fill="#22272C"/>
<path fill-rule="evenodd" clip-rule="evenodd" d="M99.3631 -3.35905C96.3527 -0.259097 92.8457 8.65286 93.0478 13.402C92.9924 14.3929 93.7345 15.2445 94.7262 15.2995C95.598 15.3467 96.3854 14.7709 96.5887 13.9168C97.6712 8.70341 99.3616 3.64511 101.629 -1.16705C102.773 -3.37271 100.494 -4.53248 99.3631 -3.35905Z" fill="#22272C"/>
<path fill-rule="evenodd" clip-rule="evenodd" d="M121.375 110.612C98.2461 98.4471 81.9019 76.4401 76.9299 50.7856C72.0999 24.6953 79.2768 -2.19299 96.4781 -22.4286C97.0116 -23.0843 96.9218 -24.0437 96.2657 -24.5765C95.6685 -25.0714 94.7819 -25.031 94.2274 -24.472C74.7057 -2.94002 66.932 26.7273 73.3743 55.0332C80.7287 86.9218 101.774 107.082 130.641 119.606C146.491 126.481 164.396 133.484 171.745 150.471C172.391 151.968 174.754 151.337 174.233 149.712C166.953 126.971 140.155 120.48 121.375 110.612Z" fill="#22272C"/>
<path fill-rule="evenodd" clip-rule="evenodd" d="M297.869 -23.6393C296.852 -24.9037 294.617 -23.2885 295.552 -21.9385C306.738 -5.7999 310.685 14.2713 306.445 33.4345C301.11 56.4299 284.439 68.1289 273.945 87.4331C268.654 97.1539 265.057 108.769 268.512 119.715C268.722 120.446 269.47 120.858 270.201 120.648C270.885 120.449 271.298 119.786 271.18 119.086C268.971 105.625 274.049 94.1444 281.116 83.4984C292.275 66.7165 305.649 55.0066 310.35 34.2248C314.839 14.2648 310.762 -7.49941 297.869 -23.6393Z" fill="#22272C"/>
<path fill-rule="evenodd" clip-rule="evenodd" d="M338.096 94.6345C330.821 92.2461 321.261 88.7498 313.881 87.5149C312.232 87.2313 312.048 89.4989 313.302 90.1384C319.939 93.5595 329.717 96.5022 336.973 98.9621C344.96 101.669 352.937 104.411 361.111 106.504C362.019 106.796 363.011 106.311 363.301 105.387C363.585 104.516 363.146 103.581 362.292 103.226C354.397 99.9261 346.243 97.3062 338.096 94.6345Z" fill="#22272C"/>
<path fill-rule="evenodd" clip-rule="evenodd" d="M396.401 -8.16449C387.765 -7.16928 379.181 -5.69613 370.7 -3.75554C362.068 -2.03574 353.455 -0.235347 344.904 1.85518C343.427 2.20931 343.843 4.75182 345.368 4.53926C353.971 3.31489 362.524 1.78077 371.06 0.166054C379.765 -1.21525 388.384 -3.0675 396.882 -5.39981C397.62 -5.66097 398.018 -6.47303 397.753 -7.22574C397.563 -7.79202 397.006 -8.17761 396.401 -8.16449Z" fill="#22272C"/>
<path fill-rule="evenodd" clip-rule="evenodd" d="M168.594 157.129C187.912 175.166 187.021 208.606 208.324 225.437C232.766 244.743 270.555 226.591 277.124 201.961C283.684 177.367 272.788 163.579 275.567 125.138C246.368 152.212 192.559 159.982 168.594 157.129Z" fill="#22272C"/>
<path fill-rule="evenodd" clip-rule="evenodd" d="M267.845 191.113C263.419 200.224 254.664 207.608 246.116 212.668C237.347 218.114 227.256 221.129 216.934 221.359C216.23 221.309 215.689 220.684 215.74 219.981C215.786 219.414 216.177 218.958 216.738 218.82C226.455 217.354 235.784 213.947 244.163 208.805C252.57 203.792 259.909 197.205 265.781 189.384C266.822 188.027 268.45 189.851 267.845 191.113Z" fill="#22272C"/>
<path fill-rule="evenodd" clip-rule="evenodd" d="M267.341 169.857C262.768 180.164 254.257 187.579 244.422 192.784C237.496 196.446 216.075 204.466 207.758 203.975C206.423 203.893 206.111 201.834 207.289 201.579C219.147 198.771 230.655 194.655 241.608 189.31C250.996 184.54 258.974 177.392 264.753 168.595C265.602 167.213 268.01 168.345 267.341 169.857Z" fill="#22272C"/>
<path fill-rule="evenodd" clip-rule="evenodd" d="M262.688 148.166C263.692 147.189 265.705 148.289 264.859 149.687C259.28 159.015 245.637 168.707 236.008 173.613C224.782 179.491 212.405 182.867 199.731 183.472C198.022 183.539 198.032 181.089 199.657 180.872C211.723 179.335 223.416 175.686 234.213 170.087C246.973 163.337 253.256 157.334 262.688 148.166Z" fill="#22272C"/>
<path fill-rule="evenodd" clip-rule="evenodd" d="M246.889 5.35588C240.401 0.366514 232.831 -3.0717 224.785 -4.65162C214.674 -6.56015 211.312 -2.20242 210.776 7.24654C209.788 25.0464 210.808 42.9169 213.861 60.4987C204.238 64.4249 194.136 67.0714 183.8 68.3337C179.812 59.6801 166.6 32.0154 159.889 25.8424C155.498 21.799 150.025 22.3446 146.204 26.768C142.083 31.5263 137.14 48.0741 135.632 54.8311C133.493 64.4422 136.809 68.516 146.04 70.4972C157.604 72.9514 169.476 73.6341 181.254 72.4808C186.082 83.0617 190.425 93.6636 194.292 104.639C198.426 116.383 202.092 128.769 205.683 140.732C205.875 141.382 206.568 141.772 207.235 141.577C207.853 141.392 208.226 140.771 208.105 140.139C205.65 127.491 202.21 115.056 197.859 102.937C194.169 92.4636 190.017 82.1239 185.471 71.988C195.447 70.7024 205.221 68.1778 214.568 64.4632C218.63 86.2309 225.746 107.286 235.708 127.048C236.768 129.13 239.894 127.423 238.883 125.33C229.194 105.576 222.234 84.6224 218.188 63.0032C230.073 57.8268 250.611 45.5761 256.728 33.4316C262.226 22.4846 255.786 12.1855 246.889 5.35588ZM150.627 67.5785C140.178 65.7435 136.767 65.0486 139.92 53.412C141.598 47.2086 144.876 35.68 148.248 30.5101C150.113 27.6585 153.062 25.7534 156.209 27.9568C161.785 31.8611 176.284 61.7954 179.549 68.7494C169.904 69.609 160.17 69.2052 150.627 67.5785ZM253.329 31.4684C248.389 42.3449 228.455 54.0261 217.479 58.9546C215.056 44.5104 212.767 19.7762 214.844 4.65987C215.5 -0.106532 217.661 -1.43591 222.409 -0.963523C232.399 0.0767154 245.424 7.09123 251.302 15.0313C255.032 19.6905 255.82 26.0509 253.329 31.4684Z" fill="#22272C"/>
</g>
<defs>
<linearGradient id="paint0_linear_634_678" x1="187.5" y1="0" x2="187.5" y2="250" gradientUnits="userSpaceOnUse">
<stop stop-color="#6039BB"/>
<stop offset="1" stop-color="#22272C" stop-opacity="0"/>
</linearGradient>
<clipPath id="clip0_634_678">
<rect width="427" height="295" fill="white" transform="translate(-39.4098 -8.40283) rotate(-12.2354)"/>
</clipPath>
</defs>
</svg>
