<svg width="375" height="251" viewBox="0 0 375 251" fill="none" xmlns="http://www.w3.org/2000/svg">
<mask id="mask0_634_829" style="mask-type:alpha" maskUnits="userSpaceOnUse" x="0" y="0" width="380" height="250">
<rect width="380" height="250" fill="#D9D9D9"/>
</mask>
<g mask="url(#mask0_634_829)">
<rect width="375" height="250" fill="url(#paint0_linear_634_829)"/>
</g>
<g opacity="0.2" clip-path="url(#clip0_634_829)">
<path fill-rule="evenodd" clip-rule="evenodd" d="M158.98 110.395C180.416 94.2965 198.136 87.8283 224.499 82.1938C226.026 81.8776 225.565 79.5203 224.096 79.549C214.213 80.0665 204.446 82.1075 195.197 85.6148C201.738 70.9247 214.271 60.2593 224.903 57.6433C236.86 62.5304 254.061 76.818 259.276 83.085C252.62 102.547 272.53 118.675 296.041 109.274C309.957 114.966 322.807 122.958 334.073 132.905C324.075 137.418 313.645 155.012 310.447 169.845C296.271 164.556 279.79 158.892 264.318 160.474C248.846 162.026 201.017 185.887 179.869 190.572C190.155 174.244 182.52 135.377 158.98 110.395Z" fill="#22272C"/>
<path fill-rule="evenodd" clip-rule="evenodd" d="M267.977 51.8363C267.833 52.3537 267.804 52.8999 267.92 53.4174C268.064 53.9349 268.323 54.3948 268.698 54.7973C269.85 55.5447 271.118 54.2223 271.464 53.1299C271.896 51.7788 271.809 50.3127 270.916 49.709C269.533 48.789 268.294 50.6864 267.977 51.8363Z" fill="#22272C"/>
<path fill-rule="evenodd" clip-rule="evenodd" d="M261.61 44.7069C263.281 39.676 267.488 34.099 273.308 36.2263C278.551 38.1812 279.272 44.1319 278.062 49.1053C278.955 48.9903 279.877 49.1053 280.741 49.4215C281.606 49.7377 282.412 50.2264 283.046 50.8876C285.495 45.943 291.143 41.6309 296.588 44.7356C301.198 47.3517 301.4 54.2511 300.132 58.7357C302.293 59.6269 304.944 60.0869 307.249 60.978C307.537 61.093 307.738 61.323 307.883 61.6105C307.998 61.898 307.998 62.2142 307.911 62.5304C307.825 62.8179 307.623 63.0766 307.364 63.2491C307.105 63.3928 306.788 63.4791 306.5 63.4216C304.223 63.0191 301.429 62.1567 299.095 61.5242C296.646 66.8138 291.719 71.8446 285.438 68.6537C279.214 65.4914 279.877 59.3394 281.836 53.7336C281.317 53.0149 280.597 52.44 279.733 52.1525C278.897 51.8363 277.975 51.8075 277.082 52.0375C275.209 56.8096 270.715 63.1916 264.779 60.3456C258.873 57.4708 259.967 49.709 261.61 44.7069ZM286.561 66.0089C291.69 68.7112 295.522 63.3354 296.963 59.1957C298.173 55.746 298.749 49.594 295.263 47.2942C290.71 44.3044 286.302 50.1402 284.861 53.8774C283.277 58.017 281.807 63.5078 286.561 66.0089ZM265.932 57.7296C270.859 59.7994 273.538 53.9924 275.008 50.3414C276.506 46.5755 276.938 40.3947 272.328 38.8711C267.776 37.3475 265.038 42.982 263.972 46.4317C262.849 50.0252 262.1 56.1197 265.932 57.7296Z" fill="#22272C"/>
<path fill-rule="evenodd" clip-rule="evenodd" d="M267.92 53.4174C268.064 53.9349 268.323 54.3948 268.698 54.7973C269.85 55.5447 271.118 54.2223 271.464 53.1299C271.896 51.7788 271.809 50.3127 270.916 49.709C269.533 48.789 268.294 50.6864 267.977 51.8363C267.833 52.3537 267.804 52.8999 267.92 53.4174Z" fill="#22272C"/>
<path fill-rule="evenodd" clip-rule="evenodd" d="M289.846 59.3682C289.183 60.8343 289.27 61.8979 290.105 62.6166C291.258 63.5653 292.381 62.7891 293.102 61.5817C293.592 60.7193 294.139 58.7357 292.814 57.9308C291.69 57.2121 290.278 58.3907 289.846 59.3682Z" fill="#22272C"/>
<path fill-rule="evenodd" clip-rule="evenodd" d="M267.92 53.4174C268.064 53.9349 268.323 54.3948 268.698 54.7973C269.85 55.5447 271.118 54.2223 271.464 53.1299C271.896 51.7788 271.809 50.3127 270.916 49.709C269.533 48.789 268.294 50.6864 267.977 51.8363C267.833 52.3537 267.804 52.8999 267.92 53.4174Z" fill="#22272C"/>
<path fill-rule="evenodd" clip-rule="evenodd" d="M273.74 65.5777C272.991 64.8877 272.731 64.3703 273.394 63.5366C274.633 62.1567 276.074 60.9493 277.629 59.9431C278.84 59.1095 277.514 57.0971 276.246 57.7871C274.806 58.5633 273.509 59.5407 272.328 60.6618C269.187 63.6228 269.591 66.3539 273.077 68.7974C274.46 69.8898 276.131 70.5223 277.889 70.6373C278.148 70.5798 278.407 70.436 278.58 70.2635C278.782 70.0623 278.897 69.8323 278.955 69.5736C279.012 69.3149 278.984 69.0274 278.897 68.7687C278.811 68.5099 278.638 68.3087 278.436 68.1362C277.37 67.245 275.324 67.0726 273.74 65.5777Z" fill="#22272C"/>
<path fill-rule="evenodd" clip-rule="evenodd" d="M283.738 76.8467C281.317 77.0767 278.868 76.588 276.736 75.3806C275.065 74.4607 274.23 76.5592 275.411 77.4792C277.946 79.0315 280.914 79.779 283.882 79.6065C286.821 79.5777 289.673 78.6291 292.036 76.8755C293.159 75.9555 292.093 73.857 290.71 74.5756C288.636 75.9555 286.216 76.7317 283.738 76.8467Z" fill="#22272C"/>
<path fill-rule="evenodd" clip-rule="evenodd" d="M289.759 88.1445C282.153 88.9495 273.452 89.8119 266.998 84.781C259.132 78.6291 262.157 70.6372 264.952 64.2265C265.73 62.4729 263.281 61.7829 262.618 63.1628C258.642 71.2122 256.971 80.0664 264.693 86.4772C271.838 92.4279 281.404 91.9105 290.076 90.6743C291.546 90.4443 291.2 87.972 289.759 88.1445Z" fill="#22272C"/>
<path fill-rule="evenodd" clip-rule="evenodd" d="M217.671 53.6187C210.612 48.5592 203.178 43.8733 199 35.9389C194.419 27.2859 194.073 17.2242 193.814 7.68002C197.041 7.99625 200.297 7.04757 202.804 5.00649C205.339 2.96541 206.953 0.0331484 207.356 -3.18659C207.385 -3.50281 207.327 -3.84778 207.125 -4.10651C206.924 -4.36524 206.664 -4.56647 206.348 -4.62397C206.031 -4.68146 205.685 -4.65272 205.397 -4.48023C205.109 -4.30774 204.907 -4.04901 204.792 -3.73279C204.475 -1.31799 203.265 0.895578 201.392 2.44795C199.519 4.00032 197.128 4.80526 194.707 4.69027C191.768 4.51778 190.702 4.80526 190.76 7.22006C191.048 17.4255 191.48 28.0046 196.263 37.2901C200.527 45.5407 208.393 51.1752 216.144 55.8898C217.469 56.6372 218.91 54.5099 217.671 53.6187Z" fill="#22272C"/>
<path fill-rule="evenodd" clip-rule="evenodd" d="M172.205 -7.55634C169.669 -9.53992 167.508 -11.9547 165.808 -14.6858C164.137 -17.503 162.87 -20.5503 162.063 -23.7125C162.005 -24.0575 161.804 -24.345 161.515 -24.5462C161.227 -24.7474 160.882 -24.8049 160.536 -24.7474C160.19 -24.6899 159.902 -24.4887 159.7 -24.2012C159.499 -23.9137 159.412 -23.5688 159.47 -23.2238C159.988 -19.6303 161.285 -16.2094 163.187 -13.1334C165.031 -10.0861 167.393 -7.3551 170.159 -5.11279C169.612 3.22403 169.295 11.6183 168.92 19.9552C167.652 48.2716 169.352 58.7932 193.814 77.7092C195.428 78.9741 197.243 76.358 195.629 75.0931C171.168 56.1197 171.024 46.173 172.147 18.374C172.464 10.4684 172.867 2.56283 173.04 -5.37151C173.04 -5.77398 172.983 -6.17645 172.839 -6.55017C172.695 -6.92389 172.464 -7.26886 172.205 -7.55634Z" fill="#22272C"/>
<path fill-rule="evenodd" clip-rule="evenodd" d="M317.65 85.5574C331.509 102.375 339.49 118.905 338.453 141.155C338.395 141.5 338.51 141.874 338.741 142.161C338.971 142.449 339.288 142.621 339.663 142.679C340.008 142.736 340.383 142.621 340.671 142.391C340.959 142.161 341.132 141.845 341.19 141.472C344.071 120.515 333.641 99.04 320.128 83.6313C318.802 82.1652 316.382 84.005 317.65 85.5574Z" fill="#22272C"/>
<path fill-rule="evenodd" clip-rule="evenodd" d="M316.296 169.213C323.931 173.439 339.144 177.923 347.874 179.188C394.55 186.059 380.72 135.319 366.199 112.005C358.506 99.6724 349.747 88.0583 340.037 77.2492C344.215 66.0089 344.561 53.7049 341.017 42.2346C340.412 40.366 337.444 39.791 338.193 43.212C341.132 56.8096 340.671 62.8466 337.444 75.4956C337.127 76.243 337.012 77.0767 337.156 77.9104C337.3 78.7153 337.674 79.4628 338.251 80.0665C350.266 92.2842 360.263 106.342 367.87 121.664C379.078 145.065 385.993 182.207 346.981 175.796C336.061 174.014 327.792 170.018 317.563 166.942C316.209 166.511 314.884 168.465 316.296 169.213Z" fill="#22272C"/>
<path fill-rule="evenodd" clip-rule="evenodd" d="M69.8919 212.363C67.1548 218.371 57.589 237.086 57.5602 242.519C57.5314 249.821 64.5617 254.019 70.4106 248.355C77.4984 241.485 80.5814 233.838 89.6573 226.45C95.2757 221.85 102.709 218.486 106.714 212.392C108.241 210.207 109.163 207.706 109.48 205.061C109.768 202.417 109.394 199.772 108.385 197.299C107.723 195.661 104.957 196.466 105.389 198.191C105.994 200.318 106.138 202.56 105.763 204.745C105.418 206.93 104.582 209.028 103.343 210.84C100.174 215.209 92.1351 219.349 87.4675 223.172C78.0459 230.848 75.5392 236.684 68.3649 244.762C64.8209 248.729 61.3923 247.09 61.3635 242.491C61.3635 238.351 70.7563 220.585 73.6376 214.462C76.0866 209.23 79.7746 202.819 81.0423 197.443C81.4745 195.632 78.8526 193.419 77.8154 196.207C75.5968 202.244 72.3122 207.045 69.8919 212.363Z" fill="#22272C"/>
<path fill-rule="evenodd" clip-rule="evenodd" d="M-5.91355 61.8405C-5.07799 71.126 4.57418 107.952 6.79274 114.937C10.8841 127.903 23.3599 126.58 33.3866 121.837C35.173 121.003 33.9917 118.215 32.1765 118.675C24.6276 120.601 13.9958 123.763 10.9417 113.701C7.8588 103.496 -1.82218 70.8385 -2.08149 61.7542C-2.16793 58.9945 -0.410353 57.9595 1.72177 59.6269C8.95368 65.2039 18.8651 82.74 23.7633 90.8756C24.5412 92.1692 26.9038 91.4218 26.3564 89.8982C23.5616 82.28 10.2791 60.3456 3.16239 56.0909C2.21158 55.4585 1.08789 55.1135 -0.0357936 55.1135C-1.18829 55.1135 -2.312 55.4297 -3.26281 56.0334C-4.21362 56.6371 -4.99154 57.5283 -5.45254 58.5632C-5.94235 59.5694 -6.08643 60.7193 -5.91355 61.8405Z" fill="#22272C"/>
<path fill-rule="evenodd" clip-rule="evenodd" d="M112.995 192.958C111.872 183.443 111.324 173.899 111.295 164.326C103.343 146.129 96.9756 124.97 91.5877 105.911C83.3473 108.44 75.3663 111.746 67.7022 115.742C67.7598 131.122 71.1309 184.765 73.9833 189.48C83.5778 194.511 106.714 193.533 112.995 192.958Z" fill="#22272C"/>
<path fill-rule="evenodd" clip-rule="evenodd" d="M31.4561 86.1898C31.6578 98.12 40.2727 119.278 43.0099 125.229C50.9045 119.307 76.9221 106.543 92.3079 101.57C92.7978 101.397 93.3452 101.455 93.8062 101.685C94.2672 101.915 94.6129 102.317 94.7858 102.835C98.906 117.783 103.199 132.732 108.587 147.278C117.922 172.49 132.184 195.517 173.53 187.094C196.811 141.931 114.638 54.7973 102.392 52.2675C87.1217 49.0766 40.8489 78.3704 31.4561 86.1898Z" fill="#22272C"/>
<path fill-rule="evenodd" clip-rule="evenodd" d="M291.805 104.56C293.361 99.2126 303.734 84.695 307.277 80.9003C306.471 80.3254 305.808 79.5779 305.376 78.6868C304.944 77.7956 304.742 76.8182 304.771 75.8407C304.915 74.3746 307.191 73.9434 307.479 75.5533C307.537 76.3582 307.825 77.1344 308.286 77.7956C308.747 78.4568 309.381 79.003 310.101 79.348C310.85 79.6929 311.657 79.8367 312.464 79.7504C313.27 79.6642 314.048 79.3767 314.711 78.9167C318.341 76.6169 320.935 70.1775 319.033 66.0378C318.802 65.5778 318.457 65.1466 318.024 64.8304C317.592 64.5142 317.131 64.2555 316.613 64.1405C316.094 64.0255 315.547 63.9967 315.028 64.1117C314.509 64.2267 314.02 64.4279 313.587 64.7442C313.299 64.9167 312.982 65.0029 312.665 64.9741C312.348 64.9454 312.032 64.8017 311.801 64.5717C309.266 61.2944 307.422 57.5285 306.413 53.4751C305.405 49.4504 305.261 45.2533 305.952 41.1711C296.3 40.5099 286.878 37.9226 278.235 33.5817C267.862 28.3497 260.112 22.4851 263.166 7.70885C264.981 -1.11667 272.213 -10.5746 283.709 -7.87237C298.173 -4.48014 324.133 19.2654 325.343 33.6105C330.241 34.7029 334.332 37.0602 335.226 42.3498C336.839 51.8365 329.492 62.9043 322.433 68.5101C322.663 75.4383 318.053 84.2063 309.755 82.2515C303.964 89.7546 298.72 97.689 294.081 105.968C293.275 107.406 291.402 105.911 291.805 104.56Z" fill="#22272C"/>
<path fill-rule="evenodd" clip-rule="evenodd" d="M302.696 10.871C298.317 5.78266 292.785 1.78674 286.561 -0.800548C281.26 -3.04286 272.414 -3.30159 271.723 4.02906C271.723 4.37403 271.838 4.69025 272.069 4.97773C272.27 5.23646 272.587 5.43769 272.904 5.52393C273.25 5.61018 273.596 5.58143 273.913 5.46644C274.23 5.3227 274.489 5.09272 274.662 4.80524C277.14 -0.714303 283.334 1.24054 287.599 3.31037C292.439 5.78266 296.934 8.9449 300.881 12.6821C301.14 12.9121 301.457 13.0271 301.803 13.0271C302.149 13.0271 302.466 12.8833 302.696 12.6246C302.927 12.3946 303.071 12.0496 303.071 11.7334C303.071 11.4172 302.927 11.1297 302.696 10.871Z" fill="#22272C"/>
</g>
<defs>
<linearGradient id="paint0_linear_634_829" x1="187.5" y1="0" x2="187.5" y2="250" gradientUnits="userSpaceOnUse">
<stop stop-color="#19C9D1"/>
<stop offset="1" stop-color="#22272C" stop-opacity="0"/>
</linearGradient>
<clipPath id="clip0_634_829">
<rect width="386" height="289" fill="white" transform="matrix(-1 0 0 1 380 -38)"/>
</clipPath>
</defs>
</svg>
