<svg width="32" height="32" viewBox="0 0 32 32" fill="none" xmlns="http://www.w3.org/2000/svg">
<rect width="32" height="32" rx="16" fill="#F9F9F9"/>
<path fill-rule="evenodd" clip-rule="evenodd" d="M16.0074 21.6471C19.5994 21.6471 22.5147 18.9313 22.5147 15.5735C22.5147 14.6625 22.2978 13.8035 21.9074 13.0313C20.8922 10.949 18.6277 9.5 16.0074 9.5C12.4153 9.5 9.5 12.2157 9.5 15.5735C9.5 17.5605 10.5238 19.3218 12.1029 20.4324L13.2656 22.9919C13.5346 23.5733 14.3155 23.6774 14.7233 23.1915L15.2005 22.6189L16.0074 21.6471ZM13.1875 15.5735C13.1875 15.9293 13.4825 16.2243 13.8382 16.2243H18.1765C18.5322 16.2243 18.8272 15.9293 18.8272 15.5735C18.8272 15.2178 18.5322 14.9228 18.1765 14.9228H13.8382C13.4825 14.9228 13.1875 15.2178 13.1875 15.5735Z" fill="#19C9D1"/>
</svg>
