<svg width="10" height="6" viewBox="0 0 10 6" fill="none" xmlns="http://www.w3.org/2000/svg">
<path d="M0.555668 0.501358H3.14879C3.45672 0.501358 3.70445 0.79204 3.70445 1.15336C3.70445 1.51467 3.45672 1.80535 3.14879 1.80535H1.89622L3.17888 3.31038C3.66278 3.87816 4.318 4.19601 5.00101 4.19601C5.68402 4.19601 6.33925 3.87816 6.82083 3.31038L9.05276 0.691524C9.27039 0.436159 9.62232 0.436159 9.83764 0.691524C10.053 0.946889 10.0553 1.35982 9.83764 1.61247L7.60571 4.23132C6.91575 5.0436 5.97806 5.5 5.00101 5.5C4.02396 5.5 3.08627 5.0436 2.394 4.23404L1.11134 2.7263V4.19601C1.11134 4.55732 0.863601 4.848 0.555668 4.848C0.247735 4.848 0 4.55732 0 4.19601V1.15336C0 0.79204 0.247735 0.501358 0.555668 0.501358Z" fill="#E93B50"/>
</svg>
