<svg width="28" height="28" viewBox="0 0 28 28" fill="none" xmlns="http://www.w3.org/2000/svg">
<rect width="28" height="28" rx="4" fill="white" fill-opacity="0.6"/>
<path opacity="0.6" d="M6.00301 18.4904C5.98475 18.0155 6.04868 17.5954 6.21763 17.1982L6.22219 17.1845C7.51444 14.1114 13.4414 13.7917 16.7702 14.3169C19.3091 14.7278 22.0716 15.9014 21.9986 18.4767C21.9894 19.3991 21.5191 19.9699 21.026 20.1434C20.8525 20.2073 20.6652 20.2302 20.4643 20.1936C16.7337 19.5589 16.7885 19.8786 16.7611 17.6959C16.7154 16.8192 12.4003 17.052 11.6058 17.2986C11.1811 17.5132 11.2405 17.463 11.2359 18.3991C11.2359 19.2941 10.9209 19.6091 10.0989 19.7644C7.84321 20.148 6.12174 20.8923 6.00301 18.4904Z" fill="#E93B50"/>
<path d="M9.25934 7.00145H12.0253C12.3538 7.00145 12.618 7.31151 12.618 7.69691C12.618 8.08231 12.3538 8.39238 12.0253 8.39238H10.6893L12.0574 9.99774C12.5736 10.6034 13.2725 10.9424 14.001 10.9424C14.7296 10.9424 15.4285 10.6034 15.9422 9.99774L18.3229 7.20429C18.555 6.9319 18.9304 6.9319 19.1601 7.20429C19.3898 7.47668 19.3923 7.91714 19.1601 8.18663L16.7794 10.9801C16.0434 11.8465 15.0432 12.3333 14.001 12.3333C12.9589 12.3333 11.9587 11.8465 11.2202 10.983L9.85205 9.37472V10.9424C9.85205 11.3278 9.5878 11.6379 9.25934 11.6379C8.93088 11.6379 8.66663 11.3278 8.66663 10.9424V7.69691C8.66663 7.31151 8.93088 7.00145 9.25934 7.00145Z" fill="#E93B50"/>
</svg>
