<svg width="24" height="18" viewBox="0 0 24 18" fill="none" xmlns="http://www.w3.org/2000/svg">
<g opacity="0.2" clip-path="url(#clip0_76_439)">
<path d="M14.8751 0.0119566C16.5553 0.0119566 18.2356 0.0087248 19.9158 0.0146007C20.2688 0.0157759 20.6047 0.123305 20.9401 0.231716C21.3894 0.376851 21.7934 0.599842 22.1724 0.877186C22.7654 1.31112 23.2133 1.86522 23.5331 2.52362C23.7073 2.88176 23.8489 3.2537 23.8946 3.65385C23.9324 3.98614 23.9928 4.31901 23.9937 4.65188C24.0016 7.44735 24.0004 10.2428 23.9957 13.0383C23.9951 13.4232 23.9855 13.8113 23.9345 14.1917C23.8931 14.4987 23.8072 14.8058 23.6988 15.0966C23.4596 15.7383 23.0917 16.305 22.591 16.7736C22.1639 17.1732 21.682 17.4902 21.13 17.7014C20.61 17.9003 20.0782 18.0008 19.5216 17.9999C16.3709 17.9955 13.2203 18.0014 10.0697 17.9926C9.03518 17.9896 8.11268 17.6353 7.34906 16.9411C6.63205 16.2888 5.95138 15.5958 5.26515 14.9101C3.66902 13.3142 2.07875 11.7118 0.48555 10.1124C0.236384 9.86205 0.0760379 9.57443 0.0197556 9.21512C-0.0608571 8.69892 0.104765 8.26997 0.454185 7.91859C2.67558 5.68398 4.90107 3.45319 7.13478 1.23092C7.59441 0.773476 8.14639 0.449419 8.76638 0.237004C9.26324 0.0668964 9.76715 -0.00185185 10.2883 -8.90783e-05C11.8173 0.00461166 13.3461 0.0016737 14.8751 0.0016737C14.8751 0.00519925 14.8751 0.0087248 14.8751 0.0119566ZM19.5345 5.98777C19.4852 5.79886 19.4544 5.60231 19.3835 5.42192C19.166 4.86929 18.7354 4.56344 18.1649 4.48265C17.6859 4.41478 17.2624 4.58665 16.9179 4.92628C16.3085 5.52709 15.7049 6.13378 15.1034 6.74282C15.0158 6.83155 14.963 6.8386 14.873 6.74694C14.2867 6.14935 13.7008 5.55177 13.1045 4.96448C12.6293 4.49646 12.073 4.33428 11.4322 4.58783C10.8087 4.83462 10.507 5.36404 10.4745 5.93136C10.4496 6.365 10.614 6.74987 10.9218 7.06218C11.5192 7.66828 12.1178 8.2735 12.7226 8.87226C12.8225 8.97097 12.8284 9.02444 12.7272 9.12404C12.1351 9.7084 11.5418 10.2916 10.964 10.89C10.5231 11.3469 10.344 11.8787 10.5703 12.5112C10.7782 13.0926 11.2044 13.4135 11.7848 13.5134C12.2357 13.5909 12.6595 13.4561 12.9922 13.1332C13.6266 12.5171 14.2475 11.8872 14.8698 11.2588C14.9621 11.1656 15.0128 11.1659 15.1081 11.2635C15.6897 11.8581 16.276 12.4486 16.8687 13.0321C17.3096 13.4663 17.8384 13.6508 18.4399 13.4572C19.0095 13.2739 19.3768 12.8614 19.484 12.2718C19.5705 11.7973 19.4556 11.3472 19.1059 10.9908C18.4865 10.3595 17.8604 9.73455 17.2339 9.11023C17.1542 9.03091 17.1378 8.98067 17.2278 8.89223C17.8243 8.30523 18.4162 7.71294 19.008 7.12123C19.3184 6.81157 19.5113 6.44903 19.5345 5.98777Z" fill="#7E798B"/>
</g>
<defs>
<clipPath id="clip0_76_439">
<rect width="24" height="18" fill="white"/>
</clipPath>
</defs>
</svg>
