<svg width="28" height="28" viewBox="0 0 28 28" fill="none" xmlns="http://www.w3.org/2000/svg">
<rect width="28" height="28" rx="4" fill="white" fill-opacity="0.6"/>
<path d="M20 10.0625C21.1391 10.0625 22.0625 9.13909 22.0625 8C22.0625 6.86091 21.1391 5.9375 20 5.9375C18.8609 5.9375 17.9375 6.86091 17.9375 8C17.9375 9.13909 18.8609 10.0625 20 10.0625Z" fill="#19C9D1"/>
<path opacity="0.6" fill-rule="evenodd" clip-rule="evenodd" d="M17 8C17 9.6575 18.3425 11 20 11C20.5475 11 21.0575 10.8425 21.5 10.58V15.47C21.5 17.5325 19.82 19.205 17.75 19.205H16.625C16.3925 19.205 16.1675 19.3175 16.025 19.505L14.9 20.9975C14.405 21.6575 13.595 21.6575 13.1 20.9975L11.975 19.505C11.8475 19.34 11.5775 19.205 11.375 19.205H10.25C8.18 19.205 6.5 17.5325 6.5 15.47V14.72V10.235C6.5 8.1725 8.18 6.5 10.25 6.5H17.42C17.1575 6.9425 17 7.4525 17 8ZM13.25 13.25C13.25 13.6625 13.58 14 14 14C14.42 14 14.75 13.6625 14.75 13.25C14.75 12.8375 14.4125 12.5 14 12.5C13.5875 12.5 13.25 12.8375 13.25 13.25ZM17 14C16.58 14 16.25 13.6625 16.25 13.25C16.25 12.8375 16.5875 12.5 17 12.5C17.4125 12.5 17.75 12.8375 17.75 13.25C17.75 13.6625 17.42 14 17 14ZM10.25 13.25C10.25 13.6625 10.58 14 11 14C11.42 14 11.75 13.6625 11.75 13.25C11.75 12.8375 11.4125 12.5 11 12.5C10.5875 12.5 10.25 12.8375 10.25 13.25Z" fill="#19C9D1"/>
</svg>
